<svg width="24" height="24" viewBox="0 0 24 24" fill="none" xmlns="http://www.w3.org/2000/svg">
    <g clip-path="url(#1oxgfx67ka)" fill="#374957">
        <path d="M5 14a1 1 0 1 0 0-2 1 1 0 0 0 0 2zM1 10a1 1 0 1 0 0-2 1 1 0 0 0 0 2zM5 6a1 1 0 1 0 0-2 1 1 0 0 0 0 2zM1 2a1 1 0 1 0 0-2 1 1 0 0 0 0 2zM23 14a1 1 0 1 0 0-2 1 1 0 0 0 0 2zM19 10a1 1 0 1 0 0-2 1 1 0 0 0 0 2zM23 6a1 1 0 1 0 0-2 1 1 0 0 0 0 2zM19 2a1 1 0 1 0 0-2 1 1 0 0 0 0 2zM14 24a1 1 0 1 0 0-2 1 1 0 0 0 0 2zM10 20a1 1 0 1 0 0-2 1 1 0 0 0 0 2zM14 16a1 1 0 1 0 0-2 1 1 0 0 0 0 2zM10 12a1 1 0 1 0 0-2 1 1 0 0 0 0 2zM15 3a2 2 0 0 1-2-2 1 1 0 1 0-2 0 2 2 0 0 1-2 2 1 1 0 1 0 0 2 2 2 0 0 1 2 2 1 1 0 0 0 2 0 2 2 0 0 1 2-2 1 1 0 1 0 0-2zM7 19a2 2 0 0 1-2-2 1 1 0 0 0-2 0 2 2 0 0 1-2 2 1 1 0 0 0 0 2 2 2 0 0 1 2 2 1 1 0 1 0 2 0 2 2 0 0 1 2-2 1 1 0 1 0 0-2zM23 19a2 2 0 0 1-2-2 1 1 0 1 0-2 0 2 2 0 0 1-2 2 1 1 0 0 0 0 2 2 2 0 0 1 2 2 1 1 0 0 0 2 0 2 2 0 0 1 2-2 1 1 0 1 0 0-2z"/>
    </g>
    <defs>
        <clipPath id="1oxgfx67ka">
            <path fill="#fff" d="M0 0h24v24H0z"/>
        </clipPath>
    </defs>
</svg>
