<?xml version="1.0" encoding="UTF-8"?>
<svg id="_레이어_1" data-name="레이어 1" xmlns="http://www.w3.org/2000/svg" viewBox="0 0 512 512">
  <defs>
    <style>
      .cls-1 {
        fill: #fff;
        stroke-width: 0px;
      }
    </style>
  </defs>
  <path class="cls-1" d="M15.2,237.83c2.35-6.76,7.57-9.74,14.25-10.7,8.09-1.16,12.11-5.51,11.79-13.61-.21-5.32,2.04-9.8,3.83-14.5.54-1.41,1.86-2.91.72-4.32-1.12-1.38-2.91-.62-4.4-.28-3.27.74-6.51,1.5-9.89.53-2.69-.78-4.47-2.48-4.73-4.83-.33-2.91,1.24-5.69,3.97-7.04,2.5-1.24,4.73-.97,6.75,1.27,1.83,2.04,3.92,2.82,6.6,2.69,2.08-.1,4.18.2,6.28.28,2.94.11,5.39,1.26,7.52,3.27,1.86,1.76,3.52,3.72,5.62,5.24,2.15,1.56,4.39,2.1,7.02,1.61,2.7-.51,5.44-.55,8.02.62,1.92.87,3.56,2.07,3.5,4.47-.06,2.37-1.44,4.03-3.54,4.75-5.45,1.85-13.52,2.31-17.62-4.16-.37-.58-.91-1.07-1.44-1.52-2.77-2.34-5.07-1.9-6.36,1.48-1.99,5.21-4.6,10.2-5.38,15.85-.68,4.91-3.81,8.51-7.37,11.53-3.19,2.7-6.06,5.49-8.02,9.23-1.17,2.24-3.05,3.95-5.54,4.75-5.07,1.63-9.59-.59-11.6-5.65v-.93Z"/>
  <path class="cls-1" d="M331.9,235.38c-.49,8.66-2.92,21.06-10.54,31.92-1.83,2.61-3.78,5.14-5.58,7.77-3,4.4-2.99,6.94.63,10.83,2.53,2.72,5.51,5.02,8.33,7.46,12.07,10.42,19.51,23.68,23.49,38.93,2.06,7.87.65,15.64-2.03,23.14-4.32,12.08-10.06,23.45-18.07,33.54-8.95,11.28-19.96,19.35-34.65,21.35-8.78,1.19-16.99-1.05-24.93-4.56-10.61-4.69-20.62-10.59-31.11-15.53-6.26-2.95-12.57-5.82-18.76-8.91-13.86-6.91-21.53-18.37-24.23-33.4-1.05-5.85-1.35-11.74-.65-17.65.83-7.08,3.99-13.03,9.03-17.99,2.16-2.13,4.49-4.09,6.66-6.19,10.35-10.01,14.67-22.09,13.33-36.5-1.25-13.4-1.19-26.87.24-40.28,1.13-10.59,5.93-19.25,14.4-25.72,13.75-10.51,29.61-15.71,46.59-17.49,10.77-1.13,20.07,3.35,28.57,9.57,4.09,2.99,7.83,6.37,10.98,10.39,5.78,7.37,8.74,15.67,8.29,29.33ZM273.94,356.93c8.85-.29,16.4-1.82,23.1-6.6,12.18-8.68,14.11-23.12,4.16-34.17-6.06-6.73-13.3-12.19-20.95-16.98-5.43-3.4-11.4-4.82-18-3.44-7.94,1.66-15.72,7.37-15.99,17.11-.21,7.5.21,14.92,1.9,22.21,2.62,11.29,14.63,22.84,25.78,21.86ZM290.15,246.31c0-1.09.09-2.18-.02-3.26-.46-4.62-2.94-6.6-7.55-6.07-1.64.19-3.17.77-4.65,1.46-4.53,2.12-8.7,4.82-12.62,7.9-1.74,1.37-3.16,3.12-3.76,5.24-1.42,5.01-2.58,10.11-2.94,15.29-.33,4.8,2.59,8.35,7.27,9.49,6.27,1.53,11.32-.7,15.41-5.36,6.18-7.05,8.58-15.51,8.86-24.7Z"/>
  <path class="cls-1" d="M131.98,131.76c11.86-.26,20.99,6.86,27.17,18.58.87,1.65,1.89,3.27,2.45,5.03,5.03,15.76,12.96,30.3,19.01,45.62,3.75,9.5,5.87,19.27,6.15,29.51.22,8.15.51,16.29.5,24.45,0,7.44,1.73,14.59,5.24,21.31,3.95,7.57,4.8,15.52.81,23.32-5.21,10.17-12.58,18.5-23.51,22.57-11.6,4.32-20.91-3.3-19.8-15.67.78-8.76,4.6-16.4,8.98-23.8,2.06-3.48,4.32-6.84,6.55-10.21,3.41-5.18,4.02-10.77,2.06-16.52-2.95-8.68-5.91-17.38-9.35-25.87-2.94-7.26-7.96-13.32-12.71-19.47-2.43-3.14-4.63-6.42-6.52-9.93-3.1-5.72-6.06-5.99-9.33-.38-7.03,12.07-15.58,23.31-20.57,36.53-2.66,7.04-3.57,14.47-5.13,21.76-2.63,12.25-4.04,24.71-6.5,36.98-1.1,5.49-2.7,10.86-4.93,16.02-3.78,8.75-10.31,14.93-18.48,19.41-9.74,5.33-19.77,10.02-31.3,9.47-10.31-.49-18.87-4.05-23.2-14.26-2.65-6.25-2.75-12.69-.79-19.18,2.72-9,8.71-15.65,15.59-21.66,5.43-4.75,11.97-7.81,17.9-11.79,16.24-10.9,30.57-23.74,40.35-41.03,3.56-6.29,5.36-13.04,5.69-20.24.55-12.1-.72-24.05-2.56-35.99-.93-6.06-1.23-12.22-.29-18.36,1.18-7.72,5.05-13.73,11.35-18.31,7.09-5.15,15.1-7.95,25.18-7.93Z"/>
  <path class="cls-1" d="M363.06,326.96c.2-5.35,3.29-10.71,7.74-15.42,2.3-2.43,4.63-4.83,7.02-7.17,6.81-6.68,9.73-14.98,10.36-24.31.84-12.4,2.13-24.79,1.87-37.24-.13-6.52-.81-13.02-2.05-19.45-1.43-7.43-5.52-13-12.02-16.65-12.96-7.28-26.87-11.4-41.8-11.77-4.64-.11-9.19-.56-13.31-2.89-6.95-3.93-10.64-11.95-9.53-20.55.59-4.55,2.08-8.76,4.92-12.43,4.78-6.16,11.57-7.97,18.72-4.87,6.25,2.72,11.71,6.75,17.11,10.82,5.83,4.4,11.24,9.28,16.54,14.34,18.62,17.79,42.59,15.76,59.77,2.56,8.38-6.44,16.34-13.44,24.93-19.63,7.08-5.1,14.71-7.63,23.49-5.35,8.33,2.17,13.63,8.23,14.23,16.43.55,7.6-4.39,15.49-11.75,18.51-5.3,2.18-10.89,3.29-16.57,3.89-2.63.28-5.14,1.76-7.92.78-.43-.15-1.06.34-1.56.81-1.73,1.64-3.78,2.56-6.24,1.97-.77-.19-1.35.22-2,.41-5.69,1.67-11.02,4.22-16.46,6.53-2.72,1.16-5.51,2.14-8.23,3.29-7.19,3.05-10.19,8.39-9.3,16.16.78,6.82,2.53,13.44,3.96,20.13,2.52,11.74,3.36,23.69,4.69,35.59.43,3.86.67,7.74.91,11.62.77,12.48-1.19,24.67-4.22,36.7-2.8,11.15-10.3,17.68-21.42,19.45-6.22.99-12.62,1.62-18.84-1.29-7.78-3.64-13.14-11.31-13.03-20.99Z"/>
  <path class="cls-1" d="M162.7,338.13c11.37,0,20.65,8.87,20.66,19.74,0,11.52-9.61,20.86-21.56,20.94-11.43.07-20.63-8.87-20.6-20,.04-11.42,9.65-20.67,21.5-20.67Z"/>
  <path class="cls-1" d="M488.8,341.06c-7.22-.65-13.67-2.51-16.41-10.32-.57-1.61-1.37-3.14-2.64-4.35-1.65-1.58-3.5-1.72-4.82.11-3.76,5.2-8.33,9.87-10.33,16.24-1.49,4.74-5.45,7.5-9.68,9.24-5.03,2.07-9.11,5.04-12.86,8.91-4.29,4.43-11.79,3.06-14.82-2.3-2.06-3.66-.7-8.08,3.38-10.62,3.93-2.44,8.16-3.35,12.74-2.26,5.31,1.27,9.63-.51,13.24-4.39,1.41-1.51,2.43-3.27,2.85-5.28,1.25-5.88,4.8-10.56,8-15.41.39-.58.85-1.12,1.18-1.73,1.39-2.61.52-4.32-2.41-4.88-3.05-.57-6.23-.26-9.19-1.43-1.55-.61-2.97-1.36-4.07-2.62-1.84-2.1-2.58-4.47-1.45-7.12,1.25-2.91,3.7-4.41,6.73-4.73,2.88-.3,4.76,1.47,5.78,3.9,1.27,3.03,3.51,4.61,6.51,5.48,1.57.45,3.1,1.03,4.65,1.56,3.62,1.26,6.31,3.57,8.06,7,1.59,3.11,3.04,6.3,5.62,8.8,1.68,1.62,3.53,2.73,5.86,3.12,3.08.52,6.06,1.36,8.65,3.27,2.34,1.73,3.43,3.97,2.8,6.13-.57,1.93-2.89,3.49-5.51,3.65-.62.04-1.24,0-1.87,0Z"/>
  <path class="cls-1" d="M377.44,400.27c-5.97-.39-11.72-1.9-16.14-6.69-4.18-4.53-4.81-11.14-1.52-16.37,7.1-11.28,26.5-13.53,36.05-4.18,6.13,6.01,5.33,15.94-1.7,21.52-4.82,3.82-10.41,5.41-16.69,5.72Z"/>
  <path class="cls-1" d="M247.68,167.32c1.31.07,2.74-.37,4.19-.63,4.37-.79,8.56-.38,12.22,2.37,4.03,3.03,3.85,8.37-.31,11.25-3.97,2.74-7.44,2.76-11.07-.47-3.23-2.88-6.73-4.73-11-5.65-5.1-1.1-9.16-3.85-11.59-8.88-2.33-4.83-6.55-8.24-10.45-11.79-1.85-1.69-4.05-1.16-5.2,1.17-.86,1.73-1.43,3.61-2.01,5.46-.92,2.92-2.78,4.98-5.47,6.35-2.86,1.46-5.95,2.3-9.02,3.11-1.78.47-3.85.63-4.99-1.39-1.14-2.03-.16-3.75,1.17-5.3,1.5-1.76,3.4-3.09,5.58-3.69,5.05-1.4,7.53-5.17,9.44-9.58.34-.78.69-1.57.93-2.39,1.54-5.2,4.98-8.54,10.08-10.14,3.46-1.09,5.95-2.81,7.11-6.6.99-3.24,4.42-4.13,7.77-2.65,3.27,1.45,4.75,4.71,3.5,7.87-1.4,3.53-4.44,4.82-7.84,5.49-1.52.3-3.09.34-4.63.55-2.53.36-3.25,1.79-1.74,3.89,1.4,1.95,3.06,3.71,4.65,5.51,2.32,2.63,4.3,5.47,5.9,8.62,2.51,4.93,7.04,7.53,12.79,7.52Z"/>
  <path class="cls-1" d="M431.88,141.76c.08,1.84-.4,3.68-1.83,5.19-2.32,2.45-5.95,2.31-9.32-.25-4.07-3.09-7.3-6.97-10.4-10.97-1.09-1.41-2.26-3.28-4.21-2.74-1.9.52-1.83,2.73-1.98,4.4-.37,4.18-.9,8.32-1.6,12.47-.58,3.48.08,6.87,3.11,9.51,3.64,3.17,5.4,7.19,3.96,12.12-.96,3.29-3.02,4.94-5.98,4.87-4.07-.1-6.62-2.64-5.89-6.64.71-3.91.62-7.49-1.28-11.04-.68-1.29-.72-2.84-.72-4.34-.01-5.21-.05-10.42-.09-15.63-.02-2.57.07-5.09.84-7.61.89-2.94-.34-4.2-3.4-3.89-3.63.37-9.63-3.4-10.89-6.84-.99-2.71.9-5.01,3.89-4.62,2.76.36,5.08,1.74,6.65,3.95,1.66,2.33,3.98,3.35,6.53,3.58,5.6.5,10.27,2.88,14.52,6.34,3.46,2.81,7.11,4.79,11.85,4.67,3.77-.09,6.21,3.14,6.24,7.49Z"/>
  <path class="cls-1" d="M482.9,290.45c6.06.11,9.9,4.29,9.49,10.4-.17,2.62-.6,5.25-1.17,7.82-1.05,4.67-4.28,6.93-9.03,6.57-6.53-.49-12.36-5.81-13.47-12.3-.41-2.43.2-4.61,2.39-5.85,2.46-1.39,4.62-3.12,6.79-4.89,1.49-1.22,3.18-1.93,5-1.75Z"/>
  <path class="cls-1" d="M461.59,367.37c-.03-1.9.51-3.68,1.16-5.44.84-2.27,1.44-4.6,1.21-7.06-.15-1.63-1.03-2.88-2.07-4.08-2.51-2.89-1.63-10.09,1.49-12.22,1-.68,1.77-.44,2.2.68.43,1.13.27,2.29.1,3.45-.24,1.67.15,3.15,1.76,3.96,8.23,4.13,9.23,11.67,9,19.58-.1,3.3-1.06,6.59-2.75,9.56-1.99,3.48-5.14,3.91-8.06,1.16-2.77-2.62-3.94-5.88-4.05-9.6Z"/>
  <path class="cls-1" d="M61.65,187.97c-3.48-.14-7.15-2.43-9.92-6.12-1.83-2.44-1.53-5.01.61-7.14,1.55-1.55,2.79-3.33,4-5.12,2.19-3.23,5.29-4.18,8.94-3.59,3.49.56,5.3,3.02,6.24,6.18.46,1.55.65,3.18.9,4.79,1.08,7.15-2.24,10.99-10.76,11.01Z"/>
  <path class="cls-1" d="M191.11,132.25c-.14-3.26,1.59-5.64,4.49-7.34,2.88-1.69,5.7-1.75,8.53.14,1.87,1.25,3.86,2.28,5.94,3.19,2.58,1.13,3.47,2.84,3.2,5.58-.65,6.49-7.04,12-13.57,11.68-2.87-.14-5.01-1.36-6.27-4.06-1.25-2.67-2.34-6.55-2.32-9.18Z"/>
  <path class="cls-1" d="M213.76,186.31c.26-3.32.77-6.69,1.92-9.95.59-1.67,1.56-3.08,3.13-3.92,2.03-1.09,2.62-2.67,2.14-4.86-.29-1.3-1.04-3.05.71-3.69,1.51-.55,2.25,1.16,2.94,2.18,2.04,2.99,3.14,6.07.55,9.43-1.41,1.84-1.24,3.95-.34,5.99.63,1.42,1.38,2.79,2.02,4.2,2.07,4.52,1.18,9.76-2.17,12.92-2.24,2.12-5.08,2.03-6.85-.47-2.48-3.49-3.94-7.4-4.06-11.84Z"/>
  <path class="cls-1" d="M59.06,231.68c-.06-1.11-.04-2.59-.24-4.05-.25-1.85-1.18-3.29-2.85-4.3-3.11-1.88-3.91-8.1-1.45-10.75.81-.87,1.62-.91,2.27.16.27.45.47,1,.53,1.53.27,2.51,1.11,4.23,4.14,4.16,1.85-.04,3.34,1.15,4.5,2.62,3.84,4.85,5.98,10.37,6.14,16.54.07,2.72-.22,5.79-3.26,6.9-2.81,1.02-5.05-.82-6.98-2.71-2.77-2.69-3.1-6.13-2.79-10.1Z"/>
  <path class="cls-1" d="M371.87,152.69c-2.83-.16-5.3-.45-6.68-3.03-1.37-2.57-.39-4.81,1.06-6.95,3.56-5.26,8.8-6.04,13.71-2.08,2.56,2.07,3.6,2.21,6.07-.01,2.22-2,4.91-3.57,6.44-6.28.23-.41.54-.8,1.11-.64.42.12.52.52.65.89.77,2.17-.55,6.78-2.33,8.41-4.94,4.49-11.04,6.81-17.11,9.18-.99.39-2.13.39-2.92.52Z"/>
  <path class="cls-1" d="M411.21,118.89c-2.08-.14-4.94.03-6.34-2.61-1.53-2.88-1.02-5.94.58-8.7,1.51-2.61,3.7-4.63,6.44-5.91,2.15-1,4.42-1.18,6.44.3,2.1,1.53,2.66,3.74,2.2,6.23-.26,1.37-.62,2.73-.86,4.11-.92,5.38-2.41,6.62-8.47,6.58Z"/>
</svg>