<?xml version="1.0" encoding="UTF-8"?>
<svg id="_레이어_1" data-name="레이어 1" xmlns="http://www.w3.org/2000/svg" viewBox="0 0 3273 2130">
  <defs>
    <style>
      .cls-1 {
        fill: none;
        stroke: #fff;
        stroke-miterlimit: 10;
      }
    </style>
  </defs>
  <path class="cls-1" d="M3214.5,328l-19-36,56.5-29.5,10.5,18.5-40,19,10,19-18,9Z"/>
  <path class="cls-1" d="M3188,413l-37-38,42-40.5,38.5,40.5-43.5,38Z"/>
  <path class="cls-1" d="M3125.96,445l-28.96-30.01,32.87-31.99,30.13,31.99-34.04,30.01Z"/>
  <path class="cls-1" d="M3106.5,329.5l-36,32,32.5,36.5,33-33.5-15.5-12,5.5-4.5-19.5-18.5Z"/>
  <path class="cls-1" d="M3083,420.5l-33,29,33,36,34.5-33-15.5-17-3,3-16-18Z"/>
  <path class="cls-1" d="M2982.5,456l-8.5-9,36.5-33,32,35.5-24.5,21-25-10-1.5-4.5-3.5,1.5-5.5-1.5Z"/>
  <path class="cls-1" d="M3040.5,410.5l17.5,20.5,36-32-27.5-30-30,27,9,11-5,3.5Z"/>
  <path class="cls-1" d="M2967.5,447l-19.5,6.5,324,132V227l-28,18v8l-134.5,70-81.5,71.5-60.5,52.5Z"/>
  <path class="cls-1" d="M3236.5,154.5l5-40,20,3.5-5,36.5h15.5v20h-20.5l-36.5,28-16-20,37.5-28Z"/>
  <path class="cls-1" d="M3115,23.5l7-12.5,32,18.5-32,45.5-35.5-21,10-17.5,4,2,11-17,3.5,2Z"/>
  <path class="cls-1" d="M3116.5,211l-40,30,40,51,38.5-31.5-38.5-49.5Z"/>
  <path class="cls-1" d="M2935,420.5l-15.5-17.5,37-31.5-2.5-2.5,10.5-9.5-2.5-3.5,36-31.5,27.5,35-78.5,68-8.5-10-3.5,3Z"/>
  <path class="cls-1" d="M3030,353l-28.5-36.5,69.5-54,28.5,36.5-69.5,54Z"/>
  <path class="cls-1" d="M2886.5,418l-37.5-42.5,37.5-36.5,42,42-42,37Z"/>
  <path class="cls-1" d="M2928,326.5l-14.5-14-24,23.5,14,12.5-2.5,2.5,17,16,21.5-21-15-16,3.5-3.5Z"/>
  <path class="cls-1" d="M2851,411.5l-23-6,6-15.5,80-78,48-36,110.5-103,187.5-103.5,11.5,4v104l-29,15.5,4,6-108.5,83-162.5,127-13.5,18-24,12h-21.5l-65.5-27.5Z"/>
  <path class="cls-1" d="M2959,278l-35.5,27.5,13,13-7,7,15,15.5,37-34-13.5-13.5,3.5-3-12.5-12.5Z"/>
  <path class="cls-1" d="M2992,304l-17.5-22,49-32.5,12,13.5-22.5,17,2,2-13.5,10.5,2,2.5-11.5,9Z"/>
  <path class="cls-1" d="M3193.5,1131v-42.5h53v42.5h-53Z"/>
  <path class="cls-1" d="M3121,1073v-57h41.5l-1.5,57h-40Z"/>
  <path class="cls-1" d="M3203,1075v-60.5h43.5v60.5h-43.5Z"/>
  <path class="cls-1" d="M2367,327.3l17,5.62"/>
  <path class="cls-1" d="M2025.9,169.18l9.58,15.12"/>
  <path class="cls-1" d="M1993.9,189.73l9.58,15.12"/>
  <path class="cls-1" d="M2371.02,315.78l16.99,5.62"/>
  <path class="cls-1" d="M2036.32,162.82l9.58,15.13"/>
  <path class="cls-1" d="M2004.32,183.36l9.58,15.13"/>
  <path class="cls-1" d="M2375.03,304.25l17,5.62"/>
  <path class="cls-1" d="M2046.73,156.46l9.58,15.12"/>
  <path class="cls-1" d="M2014.73,177l9.58,15.12"/>
  <path class="cls-1" d="M2379.05,292.72l17,5.62"/>
  <path class="cls-1" d="M2057.15,150.09l9.58,15.12"/>
  <path class="cls-1" d="M2383.06,281.2l17,5.62"/>
  <path class="cls-1" d="M2067.57,143.73l9.57,15.12"/>
  <path class="cls-1" d="M2387.08,269.67l17,5.62"/>
  <path class="cls-1" d="M2077.98,137.36l9.58,15.12"/>
  <path class="cls-1" d="M2391.1,258.14l16.99,5.62"/>
  <path class="cls-1" d="M2088.4,131l9.58,15.12"/>
  <path class="cls-1" d="M2971,912.5l2-37.5,56,3v41h-17v-4h-24.5v-2.5h-16.5Z"/>
  <path class="cls-1" d="M3034,962v8h18.5v-4h24v-8.5h12.5v-31h-4.5v3h-50.5v32.5ZM3034,962h-61v-26.5h27v-7.5h34v34Z"/>
  <path class="cls-1" d="M3069.5,882l-34.5,1v41.5l45.5-1.5v-8h5.5v-29.5h-16.5v-3.5Z"/>
  <path class="cls-1" d="M3083,830h-50l2,47.5h39l-.5-22.5h5v-4h4.5v-21Z"/>
  <path class="cls-1" d="M3034,809l2.5-37,48.5,2.5v28h-10.5v24.5l-38-1.5v-16.5h-2.5Z"/>
  <path class="cls-1" d="M3037,769v-32h51v34.5l-51-2.5Z"/>
  <path class="cls-1" d="M2985.5,816v-68.5h43v68.5h-43Z"/>
  <path class="cls-1" d="M3036,721v-111l11.5,4,11,5v11h21v38.5h3.5v14.5h-4.5v38h-42.5Z"/>
  <path class="cls-1" d="M3032,669.5l-47-1-3,39.5h23v5h27v-43.5Z"/>
  <path class="cls-1" d="M2985,606.5l5.5-15.5,17,8.5c5.83,2.33,20,7.7,30,10.5s41.83,19.5,56.5,27.5v331.5l-9.5,11h-107.5l-9-5.5,17-368Z"/>
  <path class="cls-1" d="M2963,1093l-16,6,14,38,34.5-13.5,2.5,6.5,17.5-6.5-6-16,3.5-1.5-9.5-29-13.5,5,2,4.5-27.5,10-1.5-3.5Z"/>
  <path class="cls-1" d="M3002,1037v-21l41.5-1.5v54h-30.5v-11h-4v-20.5h-7Z"/>
  <path class="cls-1" d="M2978,1023.5l-49,16.5,15,46,15.5-6-1-3,6.5-2.5,1.5,4.5,37.5-13.5-5.5-15.5-4,1.5-4.5-15-7.5,2-4.5-15Z"/>
  <path class="cls-1" d="M2929.5,1097.5l-60,27,14.5,31.5,59.5-13.5,14-7.5-14-31-9,4-5-10.5Z"/>
  <path class="cls-1" d="M2704,1057.5l-42,19.5,16,34.5,17,5.5,29.5-15-20.5-44.5Z"/>
  <path class="cls-1" d="M2720.5,1086l-18.5-41.5,48-21.5,13.5,29-9.5,4,4.5,9.5-19,7.5,2,4-21,9Z"/>
  <path class="cls-1" d="M2815.5,986.5l-12,9,8,15-11.5,4-2.5,16-11,6.5,4.5,4-13,6,11.5,21.5,55-27.5-25-54.5h-4Z"/>
  <path class="cls-1" d="M2866,944l-45.5,22,3.5,5.5-5.5,2.5,30,59,33-16v-19l-6-12,6-8.5v-6h-14v-19h4l-5.5-8.5Z"/>
  <path class="cls-1" d="M2681,996l-22,13,2,5-8,5,18.5,34.5,32.5-17-23-40.5Z"/>
  <path class="cls-1" d="M2709,981l-15,9,13.5,23-5.5,3,10,17,36-20-23.5-40.5-15.5,8.5Z"/>
  <path class="cls-1" d="M2766.5,941.5l-31.5,22.5,13.5,15.5-5,3.5,26.5,35.5,34-26.5-37.5-50.5Z"/>
  <path class="cls-1" d="M2789.5,964l-26.5-37,57.5-41,4,4,24.5,31.5-59.5,42.5Z"/>
  <path class="cls-1" d="M2906,584.5l-37.5-4-10,74.5h6.5l-17,136h-7.5l-9,70,37.5,6v-10h5l7-60,6,1.5,2.5-23h7l9.5-114.5h-5.5l5.5-34h-5.5l5.5-42.5Z"/>
  <path class="cls-1" d="M2943.5,888h-68v48.5h23.5v-3h33.5v-15.5h5v-6.5h6v-23.5Z"/>
  <path class="cls-1" d="M2878.5,882.5v-20h4v-8.5h3.5v-12.5h58.5v41h-66Z"/>
  <path class="cls-1" d="M2950.5,774.5h-51v25h-5.5v21h28.5v-9h20.5v-9.5h4.5v-14h3v-13.5Z"/>
  <path class="cls-1" d="M2952.5,705l-43.5-3-4,50.5,23,1.5v-7.5h22l2.5-41.5Z"/>
  <path class="cls-1" d="M2953.5,635h-42v50l24.5,2v-7.5h16l1.5-44.5Z"/>
  <path class="cls-1" d="M2913,631.5v-51h17v6h16.5v4h8.5l-1.5,36h-12.5v5h-28Z"/>
  <path class="cls-1" d="M2713,967.5l-56.5,36c-1,3.33-3.1,11.3-3.5,16.5-.4,5.2,4.83,38.5,7.5,54.5l17.5,37,17,5.5,247.5-126,11-237,4.5-178-79.5-21-12.5,25.5-7.5,76.5-10,105c-4.17,10.83-13.3,34.8-16.5,44s-6.33,35.83-7.5,48l17,24-17,12-4-4-60,43-47.5,38.5Z"/>
  <path class="cls-1" d="M2757.5,909l-25-35.5,14.5-10v-3l29-21,2,3,10.5-7.5,24,35.5-24,17-3-3.5-9.5,6.5,3,4-21.5,14.5Z"/>
  <path class="cls-1" d="M2720,842.5l-13-18,51-36,26.5,39.5-22.5,16.5-4-5-18.5,12.5-5-8.5-6.5,4-4.5-7-3.5,2Z"/>
  <path class="cls-1" d="M2663,787l-19-27,25-16-2-2.5,11.5-8.5,2,2.5,25.5-18,18,25.5-13.5,10,1.5,3-12,8-2.5-2.5-10,7,2,2.5-12.5,9-1.5-2.5-12.5,9.5Z"/>
  <path class="cls-1" d="M2638.5,748.5l-30-43.5,68-43.5,13,17.5-4,3,9.5,12.5-4,3,8,11-60.5,40Z"/>
  <path class="cls-1" d="M2709,688l-10-29.5,84.5-34.5,6.5,18-12,6v6l-10.5,3v5l-28.5,9.5-4,8-26,8.5Z"/>
  <path class="cls-1" d="M2788.5,552.5l-5-2-14.5,30,5.5,8.5,9,4.5-3,5,6,3.5-3,6.5,5,8.5,20.5,8,33.5-78.5-43-19-11,25Z"/>
  <path class="cls-1" d="M2734.5,505.5l-22,24,4,4-11,13.5,17.5,34.5,18-6,11.5-14,8,6,29.5-39.5-14-11.5-3.5,4.5-12-10.5-4,4-11-9-4.5,5-6.5-5Z"/>
  <path class="cls-1" d="M2693,548l-23,14,23,35.5,23-14.5-23-35Z"/>
  <path class="cls-1" d="M2644,574.5l-22,13,39.5,61,23-16-8-11,3.5-3-22-34-5.5,1-8.5-11Z"/>
  <path class="cls-1" d="M2580.5,603l-32,22.5,40.5,57,17.5-13,3.5,4.5,15-11-3-4,12.5-7-38.5-55.5-13,9.5-2.5-3Z"/>
  <path class="cls-1" d="M2627.5,2044l-51.5,13v6.5h5l9.5,41,48.5-13.5-11.5-47Z"/>
  <path class="cls-1" d="M2570,2029l-15.5-39.5,53.5-21.5,9,21.5-7.5,3,7.5,16-47,20.5Z"/>
  <path class="cls-1" d="M2632.5,2005l-15.5-39.5,53.5-21.5,9,21.5-7.5,3,7.5,16-47,20.5Z"/>
  <path class="cls-1" d="M2701.5,2033l-53,12,12,47,51.5-14-10.5-45Z"/>
  <path class="cls-1" d="M2608,1946l-16.5-41,17-8,1,3.5,11.5-4.5-1.5-3.5,13-5.5,6.5,15,5-1.5,4.5,11.5-4.5,2,5.5,14-41.5,18Z"/>
  <path class="cls-1" d="M2418.5,762l3.91,5.5M2422.41,767.5l12.09,17-18,14,23,30,58.5-44-22.5-30-30,21-16-21,13-10-26-33.5-17,5,11,15,4-2.5,9.5,13.5-24.5,17.5,6.5,8-34.5,25.5,6,7.5,44.91-33Z"/>
  <path class="cls-1" d="M2776.5,1103l-43,22,15,34.5,47.5-23-9-21.5-4.5,2-6-14Z"/>
  <path class="cls-1" d="M2707.55,1229.39l43.81-20.34-13.68-35.05-48.34,21.18,8.18,21.82,4.57-1.82,5.46,14.21Z"/>
  <path class="cls-1" d="M2776,1147l-36,17,21,45.5,41-18-10-22-4.5,2-11.5-24.5Z"/>
  <path class="cls-1" d="M2718,1125.5l-36.5,16.5,19,40.5,34-15-10.5-21.5,4-2-10-18.5Z"/>
  <path class="cls-1" d="M2693,1239l-14.5-102,41-14h13l47.5-24,30.5,67,14-6.5-29-63,2-15,41-20.5,2.5,6,112-56.5,25.5,6.5,65.5-2.5v103.5c.83,1.33,3.3,4.1,6.5,4.5s6-2.83,7-4.5v-106l213.5-3v130.5"/>
  <path class="cls-1" d="M2671,1256l-46.5,3,3,51.5,46-2.5-2.5-52Z"/>
  <path class="cls-1" d="M2611.5,1199l-6.5-50.5,27-5.5,1,5.5,19.5-4.5,4,30h-4l2,14-15,2,1.5,5-29.5,4Z"/>
  <path class="cls-1" d="M2521.5,1162v-8.5l24.5-6v3.5l38-6v4l16-1.5,21.5,155.5-40,6v-3l-68.5,10-5.5-48,61.5-9.5-9.5-63.5-26.5,2.5-5.5-35.5h-6Z"/>
  <path class="cls-1" d="M2398.5,1295.5l-15,5.5,8.5,27.5,40-12.5-5-16.5-24.5,7.5-4-11.5Z"/>
  <path class="cls-1" d="M2367,1277.5l11.5-5-2.5-6,42-20,13,25-55,26-9-20Z"/>
  <path class="cls-1" d="M2335.5,1294l-6.5-13,16-8,3,5.5,13-4.5,11.5,26-16,6v10l-12,1-9-23Z"/>
  <path class="cls-1" d="M2140,1335.5v-15l19,13M2140,1335.5l-4.5,1,3,40.5,35.5-5.5-12.5-22.5-2.5-15.5M2140,1335.5l19-2"/>
  <path class="cls-1" d="M2291,1281.5l-12-28.5-1.5-3,42-16,11.5,27.5-15,8v3.5l-25,8.5Z"/>
  <path class="cls-1" d="M2301,1291h-10v18h41.5v-15.5l-6-8.5h-25.5v6Z"/>
  <path class="cls-1" d="M2286.5,1326l8,7-10,12,14,10.5,22-22.5-22-19-12,12Z"/>
  <path class="cls-1" d="M2239.5,1362l-14.5,8-18-29.5,49.5-29,20.5,34.5-16.5,9.5-8-14-18.5,11,5.5,9.5Z"/>
  <path class="cls-1" d="M2184.5,1365l-11.5-23,22.5-10.5,8,14.5-11.5,6.5,3.5,7-11,5.5Z"/>
  <path class="cls-1" d="M2256,1255l-15,7.5,20,36.5,28.5-15.5-8.5-13.5-12,7.5-13-22.5Z"/>
  <path class="cls-1" d="M2238,1263l-18.5,10,12.5,24-12.5,7.5,8.5,14.5,31.5-16-21.5-40Z"/>
  <path class="cls-1" d="M2207.5,1281.5l-39,29.5,17,20.5,33.5-24.5-11.5-25.5Z"/>
  <path class="cls-1" d="M2162.5,1269.5h-20.5l-1,37.5c1.2.4,9.83,5.17,14,7.5h7.5v-45Z"/>
  <path class="cls-1" d="M2196.5,1261.5l-4.5,4.5-29.5,22v14.5l6.5,6.5,38.5-29.5-11-18Z"/>
  <path class="cls-1" d="M2142,1269.5v-5l50,1.5,4.5-4.5,3,4.5h19.5l20-4.5,18.5-8.5h21.5l-1.5-3,42-16,10,25c1.17,2.83,5.4,9,13,11s24.17-.83,31.5-2.5l60.5-29.5c2.83,22.33,8.3,68,7.5,72s-6.33,5.67-9,6l-54.5,16.5-45.5,9.5-17.5,8c-4.67,2.5-14.6,7.5-17,7.5s-4.67-1-5.5-1.5c-3.17-2.33-10.7-7.1-15.5-7.5s-8,1.83-9,3l-35,19-19,4c-5.67.17-17.8.4-21,0s-7.33-3.83-9-5.5l-14.5-28c-.17-3.33-1.3-11.5-4.5-17.5s-19.33-14.17-27-17.5v-36.5h3.5Z"/>
  <path class="cls-1" d="M2141,1203.5l3-20,37.5,5.5-9,45.5-26-2.5.5-12h-6l3-16.5h-3Z"/>
  <path class="cls-1" d="M2180,1253l5.5-21.5,17.5,3.5-1.5,18h-21.5Z"/>
  <path class="cls-1" d="M2186,1229.5l6-24.5,17,4-4.5,23.5-18.5-3Z"/>
  <path class="cls-1" d="M2219,1225l-6-13.5,34-14,15,40.5-41,15-10-24,8-4Z"/>
  <path class="cls-1" d="M2271,1241.5l-13.5-35,33-14,27-1,8.5,18.5-15,11.5,2,9-40,15-2-4Z"/>
  <path class="cls-1" d="M2244.5,1194.5l-5-24,55.5-20,16,31-18.5,6.5-5-16.5-25.5,9,4.5,8.5-22,5.5Z"/>
  <path class="cls-1" d="M2238,1168.5l-9.5-20,14.5-5.5,4,8.5,35.5-17,8,16-52.5,18Z"/>
  <path class="cls-1" d="M2210.5,1168.5l-5.5-9.5,18.5-11,18.5,38.5-34,19-14.5-25,17-12Z"/>
  <path class="cls-1" d="M2189.5,1121.5l5.5-3.5,6.5,3.5,16.5,24-33,26-2-2.5,6.5-47.5Z"/>
  <path class="cls-1" d="M2187,1136.5v-16l-44-3.5-1,45.5,20,1.5v4.5h16.5v-32h8.5Z"/>
  <path class="cls-1" d="M2140.5,1111.5v-20l18.5,1v-6.5l21,2-1.5,25.5-38-2Z"/>
  <path class="cls-1" d="M2228.5,1106l-19.5,7.5,15.5,34,46-17-10.5-22.5-12.5,5.5-2.5-5.5-14,5.5-2.5-7.5Z"/>
  <path class="cls-1" d="M2190.5,1083l15-24,36.5,23-8.5,14.5-28,15.5-21-15.5,6-8v-5.5Z"/>
  <path class="cls-1" d="M2191,1057l-35-8.5-11.5,8.5-3,17.5,15.5,3-1,5,28.5,5,6.5-30.5Z"/>
  <path class="cls-1" d="M2139,1197v-155.5l83.5,20,74.5,87,30.5,57.5v8.5l-13,11.5v4l-41.5,15.5-2-3.5h-13.5l-35.5,12.5h-44l13.5-53.5c.83-1.67,1.3-5.3-3.5-6.5s-6.67,1.83-7,3.5l-11,56.5-31-2.5v-55Z"/>
  <path class="cls-1" d="M2081.5,1323.5l4.5-42h42.5l-5.5,42-18.5-1,2.5-25.5h-4.5l-2,26.5h-19Z"/>
  <path class="cls-1" d="M2080,1279v-28l24.5,2.5v-2.5h19v28h-43.5Z"/>
  <path class="cls-1" d="M2026,1272.5l1-30,38,2.5v29l-39-1.5Z"/>
  <path class="cls-1" d="M2065.5,1276h-41.5v34h18.5v-20h23v-14Z"/>
  <path class="cls-1" d="M1846,1310l-6-62,41-4.5,1,21h-5l1,19.5h-3.5l1.5,17.5h-7v7l-23,1.5Z"/>
  <path class="cls-1" d="M1743,1262l.5,13.5-3.5,2.5v6l38-2.5-.5-16.5-14.5,1v-5.5l-20,1.5Z"/>
  <path class="cls-1" d="M1732.5,1334.5l-76,11-7-44,34.5-5.5.5,9,29.5-5,.5,6.5,14.5-2,3.5,30Z"/>
  <path class="cls-1" d="M1673.5,1249.5v6l-1,33.5,49,2v-4h7v3h5.5l1-37.5-61.5-3Z"/>
  <path class="cls-1" d="M2340,1219.5l-8.5,10,12,26,20,.5,8-5.5-21-36-10.5,5Z"/>
  <path class="cls-1" d="M2398.5,1203l3,4.5-35,21.5,13,21,39.5-19,11-13-3.5-5,3.5-2-13-19.5-18.5,11.5Z"/>
  <path class="cls-1" d="M2362.5,1200l-3.5-3,27-24.5,18,20.5-35.5,30.5-14-16.5,8-7Z"/>
  <path class="cls-1" d="M2339,1180.5l9.5-28,14.5-13,21,23.5-31.5,28.5-5-5.5-2,2.5-6.5-8Z"/>
  <path class="cls-1" d="M2138,1020.5v-36h22v35l-22,1Z"/>
  <path class="cls-1" d="M2156,1029.5l10.5-23h32.5l-9,27.5-34-4.5Z"/>
  <path class="cls-1" d="M2213.5,990l-15.5,37.5,15.5,7.5v5l10.5,2,23.5-33.5-34-18.5Z"/>
  <path class="cls-1" d="M2219,946.5l13.5-7.5,33,51.5-15.5,14.5-28-34.5-6,3.5-9-16,14-7-2-4.5Z"/>
  <path class="cls-1" d="M2278,993.5l-20.5,25,31,29,20-27.5-30.5-26.5Z"/>
  <path class="cls-1" d="M2252.5,1065.5l-20.5-18.5,19.5-23,34,33.5-21,23.5-14.5-12.5,2.5-3Z"/>
  <path class="cls-1" d="M2290,1064.5l-20,30,12,12.5-2,4,14.5,10.5,23.5-39-28-18Z"/>
  <path class="cls-1" d="M2360.5,1127l-45-26.5-18.5,30.5,27.5,39.5,36-43.5Z"/>
  <path class="cls-1" d="M2322.5,1077l-30.5-17,18-30.5,27,25.5-14.5,22Z"/>
  <path class="cls-1" d="M2314.5,1095.5l25-38.5,14,9-12,22,17.5,10.5,7.5-10.5,13.5,10.5-16,24.5-49.5-27.5Z"/>
  <path class="cls-1" d="M2391,1151l-28-18.5,16-25,31,21-6.5,10-3-1.5-9.5,14Z"/>
  <path class="cls-1" d="M2407,1189.5l-22.5-22.5,28-26.5,8,1v31.5l2.5,2-16,14.5Z"/>
  <path class="cls-1" d="M2433.5,1225.5l1.5-77-52-48.5-35.5-49-65.5-60-19-7-30-52h-5.5l-27,32.5-10.5,5h-6v3l-53.5-3,7,59,16.5,3,17,5.5v-3l43,9,14.5,8,66.5,77.5-2,2,29.5,41.5,15.5,31,1,14.5-10,12,13,28h26.5l65-32Z"/>
  <path class="cls-1" d="M2130,1385.5l-91.5-41.5-55.5-37h-93l-70.5,14.5-177.5,26.5,2-46,29.5-46.5v-6l111.5-5.5M2130,1385.5l54-7.5c4.67,2.67,15.4,7.9,21,7.5,7-.5,65-28.5,74-28s12,11,20,11,29-15.5,33-15.5,51.5-10.5,56-12.5,6-2,8.5-3,47.5-12,50.5-16c1.4-1.87,3.55-4.62,5.5-7.09M2130,1385.5v-36.5M2452.5,1314.41c1.39-1.76,2.67-3.37,3.5-4.41l53,8,117-3,52-5-20.5-163-5-4h-133.5l-2.5,9.5-50,3.5-11-7h-10.5v94.5l7.5,70.91ZM1785,1244v-4.5l24-2v4M1785,1244v59h7.5v16h40l-6.5-72-17,1v-6.5M1809,1241.5l116.5-8,204.5,13v90M2130,1336.5l-9,7.5-25-7.5-28-13.5-15.5-11.5c-1.5-.33-4.9-.5-6.5,1.5s-1.67,5.83-1.5,7.5l13,10.5,35.5,18,28,5.5,9-5.5M2130,1336.5v12.5"/>
  <path class="cls-1" d="M1700.5,1193.5v-6l22-1.5v45.5l-34,1.5v-32h4.5v-7.5h7.5Z"/>
  <path class="cls-1" d="M1772,1214.5l-3-43.5,48-6,4.5,45.5-49.5,4Z"/>
  <path class="cls-1" d="M1734.5,1200.5h-2.75M1731.75,1200.5h-2.75l-1.5-21,39-6,3,56-44,2v-20.5h6.25v-10.5Z"/>
  <path class="cls-1" d="M1676.5,1237l15.5-63,127.5-14.5,5.5,69-148.5,8.5Z"/>
  <path class="cls-1" d="M1837,1219l-1.5-16.5,59.5-3v18.5l-3.5,5-46.5,3.5-8-7.5Z"/>
  <path class="cls-1" d="M1837,1196l-2-33,65.5-6,2,33.5-65.5,5.5Z"/>
  <path class="cls-1" d="M1949.5,1207.5l2.5-39.5,138.5,6.5v41.5l-141-8.5Z"/>
  <path class="cls-1" d="M1837.5,1228.5l-6-69.5,50-10,245,16,2.5,69.5-198.5-13-93,7Z"/>
  <path class="cls-1" d="M2586,1113l-2.5-34.5,47.5-2v18.5h-3.5v13h-17v5h-24.5Z"/>
  <path class="cls-1" d="M2584,1070.5l-2.5-34,23.5-3v3l27.5-1,1,21.5h-7v11l-42.5,2.5Z"/>
  <path class="cls-1" d="M2571,1012v-33h66v38l-56.5,1.5v-6.5h-9.5Z"/>
  <path class="cls-1" d="M2496,1117.5l3-29,60-3,3,24h-11.5v6l-54.5,2Z"/>
  <path class="cls-1" d="M2535.5,1026.5l-38.5,2.5,2.5,49.5,47.5-2.5v-27h-9.5l-2-22.5Z"/>
  <path class="cls-1" d="M2604,973l-8.5-14,56.5-42,22.5,33.5-21,14.5-3-4-13,9.5-5.5-6.5-12,10.5-5-5.5-4.5,4h-6.5Z"/>
  <path class="cls-1" d="M2678,947.5l-23.5-33.5,41.5-29,17,21.5-5,4,7.5,10-37.5,27Z"/>
  <path class="cls-1" d="M2610,814.5l30-10,9.5,30.5h-3.5l1.5,6h-4.5l1.5,4-24,7-10.5-37.5Z"/>
  <path class="cls-1" d="M2586,790l27.5-26.5,18.5,25-14.5,12.5,3,3-12.5,9-22-23Z"/>
  <path class="cls-1" d="M1951,1113v-20.5h38l-3.5,45h-26.5v-5.5h-4.5v-19h-3.5Z"/>
  <path class="cls-1" d="M1989,1141l3-49,41,4.5-3,41.5h-8v5l-33-2Z"/>
  <path class="cls-1" d="M2031.5,1140l4-42,37.5,3-2.5,43-39-4Z"/>
  <path class="cls-1" d="M2074,1146.5l2.5-46,41,3.5-4,44.5-39.5-2Z"/>
  <path class="cls-1" d="M2035,1089l3-30,67,7-2.5,31.5-67.5-8.5Z"/>
  <path class="cls-1" d="M2001.5,1087v-41.5l34,1-2.5,42-31.5-1.5Z"/>
  <path class="cls-1" d="M1969,1043v-17h17v-1.5h14.5v-6l34.5,1v24l-66-.5Z"/>
  <path class="cls-1" d="M2036.5,1052.5l2.5-32.5,61.5,3-1,35.5-63-6Z"/>
  <path class="cls-1" d="M2077,1015.5l-3-58.5h29.5v10h4l1,23h5.5v25.5h-37Z"/>
  <path class="cls-1" d="M2072,954v-22.5h14v8.5h13v13.5l-27,.5Z"/>
  <path class="cls-1" d="M2040.5,1009l-4.5-63,25.5-1v12h4.5l1,26.5h4l1,24.5-31.5,1Z"/>
  <path class="cls-1" d="M1990.5,972.5v-14.5h44v54h-19v-3h-12l-2-36.5h-11Z"/>
  <path class="cls-1" d="M1967.5,1016.5v-15.5h17.5l-1.5-25.5h16l2,41h-34Z"/>
  <path class="cls-1" d="M1953,1084.5v-22h6v-10l40.5,1v32.5l-46.5-1.5Z"/>
  <path class="cls-1" d="M1948.5,1093l-11,47,189,13.5v-121.5l-10-70-10-35.5-13.5-5.5-53,20-65.5,4.5v16.5l-26,101.5v29.5Z"/>
  <path class="cls-1" d="M1700.5,1154.5v-12.5l14-1.5v-3.5l17-2.5v-2.5l26-3.5,1.5,20-58.5,6Z"/>
  <path class="cls-1" d="M1766,1148l-2.5-37,36-6,5,39-38.5,4Z"/>
  <path class="cls-1" d="M1825,1141l-5-48.5,34.5-4,1.5,16h6l3,29.5-40,7Z"/>
  <path class="cls-1" d="M1859,1096.5l13.5-25,37,15.5v-4l11.5,6.5-20.5,40-28-2.5,5-8.5-11.5-6.5,5-9-12-6.5Z"/>
  <path class="cls-1" d="M1899.5,1068.5l10-42,19,3.5v4l12,3-10.5,47-23-5.5,1.5-8-9-2Z"/>
  <path class="cls-1" d="M1872,1045.5v-25l13.5,4v-4l16,4-4,15.5h5l-7.5,32-29-5.5,6-21Z"/>
  <path class="cls-1" d="M1848.5,1048.5l-9.5-29h26.5l2.5,25-19.5,4Z"/>
  <path class="cls-1" d="M128.5,1599.5l26,38,.5.5,27-23.5-25.5-37-28,22Z"/>
  <path class="cls-1" d="M41.5,1666.5l-24.5-28.5,35-29,23.5,29-34,28.5Z"/>
  <path class="cls-1" d="M268.5,1946.5l-31,36,167.5,147h96l-68-62-30.5,18.5-27-18.5,5-7-27-18.5,5-7-36.5-25.5,5.5-8.5-28-21.5,4.5-6.5-35.5-26.5Z"/>
  <path class="cls-1" d="M402.5,2013l33-25,16.5,25-13.5,4,.5,3-20.5,7-6-2.5-10-11.5Z"/>
  <path class="cls-1" d="M396.5,1932.5l22,29,14.5,22.5-39.5,30-37.5-50.5,40.5-31Z"/>
  <path class="cls-1" d="M316,1911l-3-5-14,10,8,12,3.5-2,25.5,35.5,18.5-13-3-5,33.5-24.5-29.5-38.5-32.5,23,1,2.5-8,5Z"/>
  <path class="cls-1" d="M311,1809.5l-28.5,37-2,16c2.83,5.17,9.6,16.7,14,21.5s14.5,8.67,19,10l34-26.5-8-9.5,1.5-4-30-44.5Z"/>
  <path class="cls-1" d="M253.5,1851.5c-7.2,8-30,29.67-40.5,39.5l14,6,36.5-39.5,32-46c.5-.83.9-3.2-1.5-6s-6.33-1.17-8,0c-7.83,12-25.3,38-32.5,46Z"/>
  <path class="cls-1" d="M152.5,1855l-23-27,13-10.5-4-4.5,12.5-10,12.5,16,9.5-7.5-13.5-15.5,5-4,26.5,30.5-21,18-3.5-3.5-8,7,3,3.5-9,7.5Z"/>
  <path class="cls-1" d="M195,1871.5l-16-20.5,31-25,25.5,30.5-27,24-10-12-3.5,3Z"/>
  <path class="cls-1" d="M250,1849l-32.5-33,14-12.5,4,5,12.5-10-4-4.5,10.5-9.5,5.5,5,11.5-8.5-4-4.5,9.5-7,15.5,22-18.5,17,3,3.5-11,19-13,8,4.5,3-7.5,7Z"/>
  <path class="cls-1" d="M86.5,1630l-31-38,31-24.5,31.5,34.5-31.5,28Z"/>
  <path class="cls-1" d="M238,1742l-6-2.5-37,30,4,4.5-12.5,10,25,28.5,57-49.5-19.5-29-11,8Z"/>
  <path class="cls-1" d="M47.5,1914.5l-6-10.5,54-42.5,6.5,7,6.5-3,9.5,12,4-3,33,40-70.5,58.5-21-24-4,2-16-33.5,4-3Z"/>
  <path class="cls-1" d="M.5,2028.25v101.25h390M.5,2028.25v-101.25l97-74,74,46.5,99.5,35.5,44.5,38.5,20.5,30,88.5,51,40-16.5,60.5,91.5h-134.5M.5,2028.25l65-45.75,128.5-19,196.5,166"/>
  <path class="cls-1" d="M271.5,1571.5l26.5-17.5,19,26.5,32-23,23,36.5"/>
  <path class="cls-1" d="M1720.5,1096l-20.5,4,6,37,50.5-15.5-9-38-26,5.5-1,7Z"/>
  <path class="cls-1" d="M1816,1041l-2.5-7.5h26l5.5,24.5h8.5l6,24-28.5,6.5-1-5.5-15,2.5-2.5-14.5h-4.5l-8-26.5,16-3.5Z"/>
  <path class="cls-1" d="M8.5,1835.5l41.5-36,19,21-42,37-18.5-22Z"/>
  <path class="cls-1" d="M29,1776.5l-27.5,20.5v92.5l61.5-50,10.5-14-44.5-49Z"/>
  <path class="cls-1" d="M360.5,1873l-71.5,49.5,39.5,34.5c5,8.17,17.1,26.6,25.5,35s26.17,17.83,34,21.5l39,20.5,30.5-13-97-148Z"/>
  <path class="cls-1" d="M272,1727l10.5,14.5"/>
  <path class="cls-1" d="M101,1459l10.5,14.5"/>
  <path class="cls-1" d="M282,1720l10.5,14.5"/>
  <path class="cls-1" d="M111,1452l10.5,14.5"/>
  <path class="cls-1" d="M292,1713l10.5,14.5"/>
  <path class="cls-1" d="M121,1445l10.5,14.5"/>
  <path class="cls-1" d="M302,1706l10.5,14.5"/>
  <path class="cls-1" d="M131,1438l10.5,14.5"/>
  <path class="cls-1" d="M312,1699l10.5,14.5"/>
  <path class="cls-1" d="M141,1431l10.5,14.5"/>
  <path class="cls-1" d="M322,1692l10.5,14.5"/>
  <path class="cls-1" d="M151,1424l10.5,14.5"/>
  <path class="cls-1" d="M332,1685l10.5,14.5"/>
  <path class="cls-1" d="M243,1720l-130,111,24.5,25,21.5,13,122,50,74-57.5-96.5-141.5h-15.5Z"/>
  <path class="cls-1" d="M196.09,1627l25.41,37-21.5,57-109,92-44.5-46,10-18,139.59-122ZM196.09,1627l-10.65-15.5M185.44,1611.5l-54.94-80L2,1636v90l25.5,23,157.94-137.5Z"/>
  <path class="cls-1" d="M1348,1776.5l-5,41,84,25,36,40,33.5,46,79,19.5,128,29,65.5,77,26,20.5,23.5,7,38,20c3.83-3.5,12.9-11.4,18.5-15s14-19.5,17.5-27l3.5-26c-.17-2.67,1.1-7.9,7.5-7.5s7.33,5.17,7,7.5l-7,31.5,14.5,6.5c-4.5,8-13.7,24.6-14.5,27s-19.33,18-28.5,25.5h782.5l-7.5-17.5,67.5-23,6.5-17.5-73.5-213,85-49,52-48.5,186-99-72-66.5c-1-1-2.4-4,0-8s5.67-3.33,7-2.5l78,70,111-36.5,87-18.5,88-19.5v-435.5l-258-13-129.5,29-192,83.5,9,45.5h22l31-13.5,3,39-78.5,5v-5l-54,5-116.5,3-53-8c-1.17,1.67-4.5,6.2-8.5,11-5,6-43,13-57,18.5s-45.5,11-56,13-18,11-30.5,15-14.5-8.5-24-10-65.5,28-74.5,28c-7.2,0-17.33-5-21.5-7.5l-54,7.5-91.5-41.5-55.5-37h-93l-70.5,14.5-177.5,26-4.5,35.5-78.5,82.5-73-52-19,14-19,46-15,69-4,97-69,99.5-12,37.5Z"/>
  <path class="cls-1" d="M1688.5,2040l6.5-49,96.5,96,51,23.5-35.5,14h-30.5l-24-14-70-64,6-6.5Z"/>
  <path class="cls-1" d="M1246.5,2087l-20.5,37h88.5l24.5-67c12-12.33,37.8-38,45-42,9-5,28-10.5,45-12.5,13.6-1.6,141.33,11,203.5,17.5l42.5,19,11-58-19.5-8.5-79.5-8.5-97.5-22.5-35.5-53-36-35-73-20,63,134-10.5,5-63-130.5-77,104.5-22.5,54,13,43.5-1.5,43Z"/>
  <path class="cls-1" d="M1004,1639.5l66.5-38.5-3-45,23-6,15.5-15.5,13.5,21.5h28.5l24.5-16.5,11.5-27-20.5-104.5,46.5-64,39-86,16.5-17,29.5-108.5,107.5-76,76.5-13,27-12.5,66-14.5,93.5-44.5"/>
  <path class="cls-1" d="M939.5,1675.5h3.5l24.5-42.5,15.5,21c1.83,1,6,2.6,8,1s1.83-5.67,1.5-7.5l-16.5-21.5"/>
  <path class="cls-1" d="M2400.5,949l-27-74,90-53,95,144-158-17Z"/>
  <path class="cls-1" d="M2493.5,1014l2-38,64-2v6h3.5v24.5h-11.5v12l-58-2.5Z"/>
  <path class="cls-1" d="M2438,1126v6l37.5-2.5-1-12.5h4l-4-24.5-49.5,5v17.5l13,11Z"/>
  <path class="cls-1" d="M2479.5,1053.5l-39,6,2.5,29.5,33-4.5v-15h3.5v-16Z"/>
  <path class="cls-1" d="M2404.5,1101.5l-9.5-25.5,32-2.5,4,19.5-26.5,8.5Z"/>
  <path class="cls-1" d="M2429.5,1033l-57,6.5,1.5,22.5,2.5,3,54-9.5-1-22.5Z"/>
  <path class="cls-1" d="M2294.5,966.5l11.5,17.5,27-12,4.5,10-28,13,14,15.5,28.5-9.5,7,19M2359,1020l-16,10.5,31,31.5-3-42h-12Z"/>
  <path class="cls-1" d="M2406,978l-46.5,9,6.5,23.5,45.5-6-5.5-26.5Z"/>
  <path class="cls-1" d="M2311,957.5l18-3,14.5-7,11,28,6.5-1.5h3l49.5-12.5,11,25.5,4-27.5,58.5,7.5-3,30-9,1M2475,998v4M2475,998l-46.5-3.5v15M2475,1002v18h-7l-1,16h-11l-1,19.5-21-2,3.5-54,37.5,2.5ZM2428.5,1009.5v15l-54,5.5,2-17.5,52-3Z"/>
  <path class="cls-1" d="M2371,903.5l-41.5,19,10.5,23,5-2.5,9.5,15.5,6.5,15.5h3l32-16.5-25-54Z"/>
  <path class="cls-1" d="M2290.5,918.5l-33.5,17,18.5,39.5,3,1,32.5-18.5-20.5-39Z"/>
  <path class="cls-1" d="M2303.5,927.5l-8.5-17,24.5-13,9,18.5-25,11.5Z"/>
  <path class="cls-1" d="M2337,886l-5.5-15.5,24.5-8.5,14,30.5-33,14.5-7.5-17.5,7.5-3.5Z"/>
  <path class="cls-1" d="M2289.5,899.5l-6-19.5,42.5-14.5,5.5,18.5-42,15.5Z"/>
  <path class="cls-1" d="M2237.5,909.5l-2.5-8,43-17,8.5,25-36.5,17.5-6.5-20-6,2.5Z"/>
  <path class="cls-1" d="M2167.5,957.5l-14.5-17.5,51-47,16,18,.5,9.5"/>
  <path class="cls-1" d="M2121.5,906l7.5,11.5-3.5,2.5v9l8.5,14.5,24.5-12.5-2-4.5,12.5-7.5-1.5-2.5,11.5-7-2.5-3.5,9-5.5-13-22-51,27.5Z"/>
  <path class="cls-1" d="M2610.5,849.5l-35,25,35.5,54.5,5,6,36-25-41.5-60.5Z"/>
  <path class="cls-1" d="M2525,908l36.5-24.5,42,60-37.5,25.5-41-61Z"/>
  <path class="cls-1" d="M2559,879.5l42,55c1.67,1,5.5,2.6,7.5,1s2.5-5,2.5-6.5l-83-110.5,6.5-4.5M2534.5,814l40.5,56.5,32.5-23.5-40-56M2534.5,814l33-23M2567.5,791l43.5-31.5,55,76-40.5,29,25,35.5,41.5-29.5,27.5,39-2,14.5-67,47.5h-10.5v53.5l-3,12.5,3,42.5,18.5,14,11.5,24h-87l-8-98-17,2.5,9.5,95.5-76,4.5,3.5-58c-.17-1.83-1.7-5.5-6.5-5.5s-6,3.67-6,5.5l-2,65-43,2.5-39.5-33.5-21-33-56-57.5-20.5-23-25-10-31.5-56-11.5-4.5-12,6-2,8.5-35,30.5-54-6-9-36-12.5-7.5,66.5-40,11,4.5,119.5-73,6.5,11,15,31.5,9.5,19.5c1.5,1,5.2,2.6,8,1s3.5-6,3.5-8l-28.5-59.5"/>
  <path class="cls-1" d="M2161.5,1003.5v-25h24.5v-7h16.5l1,31-42,1Z"/>
  <path class="cls-1" d="M2549.5,772l-74.5,52.5,14,20.5M2489,845l29-20.5,41,55-34.5,23.5-39.5-55,4-3Z"/>
  <path class="cls-1" d="M2569,694l-64.5,44,29,43,20-11.5-2-3,15-9-3-3.5,27-16.5"/>
  <path class="cls-1" d="M2532,642.5l-61,41.5,26,38.5,63-40.5"/>
  <path class="cls-1" d="M2432.5,643.5l55.5-39.5,16,24-53.5,40.5"/>
  <path class="cls-1" d="M2496,592l-86,53.5-25.5-39,27-18,2,3.5,17-13,2.5,3,7-4.5-3-4.5,23.5-15.5"/>
  <path class="cls-1" d="M2295.5,665.5l35,46,9-6.5,39.5,54.5,21-15.5-12.5-17,5.5-5-29.5-38,5.5-5,20,26,32-23.5-51-68"/>
  <path class="cls-1" d="M2336.5,636.5l24,30.5-6,5-24.5-31"/>
  <path class="cls-1" d="M2167,817.5l-10.5-15.5,61-42,39,59-59.5,36.5-23.5-38h-6.5Z"/>
  <path class="cls-1" d="M2096,805.5l13.5,18.5,4-2.5,12.5,18,14.5-11,3,3.5,18.5-13.5-28.5-39"/>
  <path class="cls-1" d="M2084.5,813.5l14,21-4,3,10.5,13-4,3.5,12.5,19-27.5,18.5"/>
  <path class="cls-1" d="M1918,970l-2.5,19,8,1.5v9.5l22.5,2.5,8.5-6,3.5-19.5-40-7Z"/>
  <path class="cls-1" d="M2035.74,868l-25.74,17,14.13,22-3.53,3,9.59,11.5,10.6,2.5,23.21-13.5"/>
  <path class="cls-1" d="M1981,924v-30l19.5-1v8.5l13.5-.5,1.5,21-34.5,2Z"/>
  <path class="cls-1" d="M1917,898l37.5-.5,1.5,63-45,1"/>
  <path class="cls-1" d="M1686.5,1071.5l-3,6,12.5,74v7.5l127.5-13.5,66.5-12.5,38,2,11-46-2-27.5,8.5-36-38-10.5-6.5-11.5-30,9-38.5,5-146,54Z"/>
  <path class="cls-1" d="M732,1544l-1.5,25-15,27.5v16.5l13,8.5,82,10,48.5,40,9,1,11-11,7,4"/>
  <path class="cls-1" d="M632.5,1638.5l62-93,44.5-25"/>
  <path class="cls-1" d="M2298.5,353l24,34.5,47.5-28v-4.5l-45-19.5"/>
  <path class="cls-1" d="M707,2068l-38,24,21.5,30,7.5-5.5,4,4.5,26.5-19-21.5-34Z"/>
  <path class="cls-1" d="M634,2054.5l10,16.5,3,1,13.5,21.5,8-5v-3.5l18-11.5-23.5-39"/>
  <path class="cls-1" d="M709.5,2009.5l-40,26.5,19.5,31,7.5,1,10.5-6,18.5,26,23-15.5v-3.5l13-8.5v-6l-20-34.5-3.5,2-6.5-9-14,9-8-12.5Z"/>
  <path class="cls-1" d="M772,2060l-46,33,13.5,19.5,23.5-2,29.5-23-20.5-27.5Z"/>
  <path class="cls-1" d="M819.5,2019.5l-38,25,17,24.5,9.5-5.5,2,3.5,10-7,1.5,2.5,17.5-13.5-19.5-29.5Z"/>
  <path class="cls-1" d="M800.5,1988.5l-33,22,8.5,12-5,4,11,15,37-25-18.5-28Z"/>
  <path class="cls-1" d="M835,1855.5l-45.5,27,13.5,23.5,5.5-3.5,14.5,23.5,18.5-12,3,4.5,5.5-3.5-3-4.5,15-9.5-27-45.5Z"/>
  <path class="cls-1" d="M804,1805l-42,25,13.5,24.5,5.5-4,13.5,23,38-22-28.5-46.5Z"/>
  <path class="cls-1" d="M751,1822l-22-37,32-19,23,35-33,21Z"/>
  <path class="cls-1" d="M691.5,1678.5l7,11-12.5,8.5,37,59.5,30-19.5-37-59-5.5,4-8-12-11,7.5Z"/>
  <path class="cls-1" d="M545.5,1876l-39,27.5,51.5,77,4.5-3.5,36,50.5,32.5-24.5-14.5-20,6.5-4.5-16.5-23-5,3.5-56-83Z"/>
  <path class="cls-1" d="M464,1771.5l24.5,38.5,34-23.5,22.5,34.5"/>
  <path class="cls-1" d="M431,1797l51.5,78,66-42.5"/>
  <path class="cls-1" d="M489.5,1619l-39,50.5,40.5,30.5,15.5-19,3,2,9.5-12.5-2.5-2.5,12-17.5-39-31.5Z"/>
  <path class="cls-1" d="M492,1739l-50-71-53.5,39.5,49,71"/>
  <path class="cls-1" d="M396.5,1626l-59,40.5,31,45.5,43-29.5-4.5-7,37-25-25-35.5-21,13-1.5-2Z"/>
  <path class="cls-1" d="M435,1602.5l25.5-16,20.5,32-25,17.5-21-33.5Z"/>
  <path class="cls-1" d="M521,1542l-16.5,11.5,22,32.5,31.5-21"/>
  <path class="cls-1" d="M467.5,1574.5l25.5,34,3.5-1.5,9.5,14.5,23-16.5-7-12,3-2-27-36"/>
  <path class="cls-1" d="M617.5,1897l3,4-8.5,5.5,32.5,50.5,29.5-21-32-49-16,10-3-4-5.5,4Z"/>
  <path class="cls-1" d="M721,1897l-28.5,18.5,26.5,36.5,9-5,4.5,6,18-13-29.5-43Z"/>
  <path class="cls-1" d="M678,1869.5l-19,12.5,20.5,35.5,37-22.5-19.5-32.5-17.5,10-1.5-3Z"/>
  <path class="cls-1" d="M726,1841.5l-26,17.5,12.5,20.5h3l20,31.5,14-8.5-2-3,5.5-3.5-3-4.5,4.5-3"/>
  <path class="cls-1" d="M2133,884.61l-36,22.89-42.5-58.5,3.5-17,391-274.5h22.5l121.5,170.5-5.5,21.5-214,125.5-62.5-89.5-123,75.5-10-5-2,1.27M2133,884.61l-18-30.61,41.5-20.5,6,11.5,5-3.5,8.5,15.77M2133,884.61l43-27.34M788,1498l35.5,47.5-21,16-9-9-5.5,4.5-12-15-6.5,3.5-9.5-14,9.5-20,18.5-13.5ZM760,1552.5v4.5l16,4.5-3,10.5,3,3.5-10.5,33.5-5.5-3-3.5,14.5-14-5-3,5-18.5-8,14.5-67,24.5,7ZM820.5,1531.5l-28.5-36,24.5-17.5,11.5,13-4.5,4.5,19.5,20.5-22.5,15.5ZM781.5,1584.5l-8.5,31,29.5,12.5,14-12.5,7,5,8.5-5-4-6.5,9-6,6,3,37.5-26.5-27-37.5-33,23,7.5,10.5-20.5,15-26-6ZM853.5,1609l3,6.5-10.5,5v7.5l-9,5,22.5,35.5,31.5-21.5-5-7.5,14-6.5v-12.5l-20.5-27.5-26,16ZM886,1665.5l21.5-37.5,22.5,15.5,5-4,17.5,12-13,24-16,4.5-8.5-4.5-7.5,4.5-7.5-4.5-9,4.5-5-14.5ZM904,1603l14,25,27,11.5,15-6.5-15-27-5.5,3-16-18.5-19.5,12.5ZM952.5,1598.5l21,29.5,4.5-4,16.5,23,9.5-7.5v-6.5l23-9-24.5-36,1.5-3.5-9.5-15.5-42,29.5ZM1023.5,1609l43.5-24.5-34.5-53-41.5,25.5,32.5,52ZM1037,1520.5l23,32,39-25-22.5-32-39.5,25ZM1085.5,1491l20.5,25,52-38-21.5-25.5-51,38.5ZM1106,1527.5l16.5,25h24.5l23-16.5,9-20-21-28.5-52,40ZM1063.5,1267.5l34-22,34,54.5-30.5,20-37.5-52.5ZM1106,1325l25.5-17,3,4,5-2.5,14.5,23.5-30,20.5-18-28.5ZM1127.5,1362c6.83,12.5,23.5,36,23.5,36,0,0,13.5-8.83,17.5-12l-2-3.5,19.5-14-2.5-3.5,5.5-4-1.5-2,8.5-5.5-2.5-4,14-9.5-16-23-64,45ZM1085.5,1209l12,21.5,34-18-7.5-11.5-7.5,4.5-5-9-9.5,6-1.5-2.5-15,9ZM1095,1236l16.5,27.5,16-11h8l18-12-19-28-3,2,2,2.5-9.5,5.5-2-3-27,16.5ZM1116.5,1269.5l26,40,26.5-17.5-2-3,15-9-19.5-27.5-13.5,9.5-7-9.5-25.5,17ZM1149,1311l13.5,22,36.5-24.5,2,3,10.5-7-17.5-24.5-45,31ZM1187,1256l28,40.5,15.5-10.5-4-7,8-5.5-2.5-5,5.5-3.5-24-33-14.5,10,1.5,3-13.5,11ZM1143,1186l21.5-16.5-26.5-38.5-25.5,19,30.5,36ZM1149,1122.5l27,40,19-13-5-5.5,15-10.5-18-31.5-3.5-3.5-34.5,24ZM1149,1196.5l11,16,2.5-1,14.5,21.5,12.5-10,2,2.5,7.5-5-1-2,6.5-6-21-37-34.5,21ZM1210,1217.5l35.5,37.5,16.5-16.5,3.5-29-10-11.5-5.5,4-4.5-4-7.5,7-3.5-3.5-7.5,7.5-3-2.5-14,11ZM1210,1102l45.5-18-10-22-26,14.5-4.5,7.5-14.5,5,9.5,13ZM1222,1109l7-4v-3l13-6.5,3.5,3,14-9.5,31,45.5-18.5,12.5-6.5-5.5-10,8.5-4.5-8.5-9,2-20-34.5ZM1251.5,1060l18,26.5,33.5-24.5-17-26-34.5,24ZM1269.5,1095.5l22.5,32,41-29-5-9.5h-7l-10.5-19.5-41,26ZM1296.5,1031l14,23.5,34-18.5-16.5-23.5-31.5,18.5ZM1314.5,1066l21.5,27.5,17.5-12-3-3.5,15-8.5-2-1.5,11.5-6-16.5-22-11,8.5-5-3.5-28,21ZM1350.5,992l9.5,18,10.5-6.5,4.5,6.5,32.5-21.5-6.5-8,4.5-4-13-13.5-42,29ZM1375,1015l3.5,16h-5.5l5.5,23.5,43.5-6-9-43-38,9.5ZM1413,976.5v21.5h9l2,14.5h-5.5l7,35,64.5-14-11-47h-6.5l-2-10h-7.5v-5.5l-15.5,2v3.5l-11,2v-7.5h-11v5.5h-12.5ZM1475,939.5l15-10.5,4,4,19.5-13-18-24-32.5,19.5,12,24ZM1504.5,890.5l6,10-3.5,2.5,9,14.5,4-2,6,9.5,22.5-14.5-22.5-35.5-21.5,15.5ZM1531,875l20,32.5,19-11.5-2.5-5.5,24.5-15.5-11.5-19-17-3.5-32.5,22.5ZM1494,978.5l4,16,37-11.5-13-42-17.5,6,6,24-16.5,7.5ZM1532.5,961.5l5.5,21.5,32.5-8-14-46-14.5,4,6.5,28.5-4.5,1.5-2-6-9.5,4.5ZM1512,997l8,27,50-11.5-6.5-29.5-17.5,5.5,2.5,9.5-17.5,5.5v-11.5l-19,5ZM1557.5,921l8,28,55-24-10.5-22-20.5,10v-5.5l-16,8-1.5-4-14.5,9.5ZM1570,952.5l3.5,13.5h-3l10,32,71.5-25-6.5-20.5-11-13-2.5-10.5-30,8.5v2l-7.5,4.5-2.5-3-22,11.5ZM1697,986.5v8l-14,3.5-2.5,7,6,54.5,138-54,45-2,26.5-11.5v-84.5l-199,79ZM1911,900.5l115-48,42.5,65-26.5,11.5h-48l-28,8.5v19.5l-12.5,55.5-37-9-5.5-9v-94Z"/>
  <path class="cls-1" d="M2308.5,429l10-7.5,5.25,7M2318.5,444l10.5-8.5-5.25-7M2323.75,428.5l-9.25,7"/>
  <path class="cls-1" d="M678,1848.5l-19.5-30.5-38,25.5,17.5,28.5,20.5-13.5,1,2"/>
  <path class="cls-1" d="M669,1764.5l-27,15.5,35.5,64,27.5-20.5-36-59Z"/>
  <path class="cls-1" d="M582.5,1859.5l-2.5-16.5,35-5.5,9.5,51.5-18,3-6-35.5-18,3Z"/>
  <path class="cls-1" d="M625,1782l-68.5,15,2,21,14,45,87.5,143.5,101.5-67.5,4-32-43.5-72-56,37.5c-2,1-6.6,2.1-9-1.5s.33-8.17,2-10l56.5-37.5-45.5-70.5-45,29Z"/>
  <path class="cls-1" d="M557,1803.5l28.5-8,11,40-30,8.5"/>
  <path class="cls-1" d="M791,1474.5l-4-5,13-9.5-25-37-27,19.5,7,11.5-21,15.5,20,30"/>
  <path class="cls-1" d="M675,1434l35.5,52.5,19-12.5,19,28-72.5,50.5c.33,9.17-9.52,28.96-25.5,35.5-11,4.5-25.5,3-36-2-8.4-4-18.83-12-23-15.5"/>
  <path class="cls-1" d="M613,1476l3,4.5-49.5,34"/>
  <path class="cls-1" d="M716,1410l-28.5,20,16.5,22-4,3,16,22,31-23.5-31-43.5Z"/>
  <path class="cls-1" d="M716,1405.5l29,39,36.5-26.5"/>
  <path class="cls-1" d="M1072,1161.5l8,12-13,7.5,17.5,26.5,34-20"/>
  <path class="cls-1" d="M815,1340l28,41-38,27.5"/>
  <path class="cls-1" d="M817,1427l33-23,22.5,31.5-11.5,9,3,4-22,14.5"/>
  <path class="cls-1" d="M866.5,1500.5l56.5-35.5,15.5,24.5-55.5,35"/>
  <path class="cls-1" d="M901,1546l-11.5-16.5,13.5-10-2-2.5,18.5-12.5,25,36.5-20,13-4-5.5-7.5,4.5-7.5-9.5-4.5,2.5Z"/>
  <path class="cls-1" d="M972,1519.5l-27,17-19.5-30.5,20-14-2.5-4,6-4,23,35.5Z"/>
  <path class="cls-1" d="M975,1490.5l-15-17.5,19.5-16.5,15-.5,8,12-27.5,22.5Z"/>
  <path class="cls-1" d="M1026,1424l-34,22,2.5,3.5-3,2,25.5,38.5,21.5-13.5-3-4.5,13-10-6.5-10,3-2.5-19-25.5Z"/>
  <path class="cls-1" d="M1097.5,1374l-27,19,27,39.5,16.5-12-8.5-13,10.5-7"/>
  <path class="cls-1" d="M879.5,1421.5l-48.5-76.5,66.5-42,86.5,138.5-48.5,28-38-59.5-18,11.5Z"/>
  <path class="cls-1" d="M980,1332.5l-34,26,28,36-4,3.5,24,27,71.5-54.5-26.5-33.5-19.5,15.5-4.5-6-14.5,12-20.5-26Z"/>
  <path class="cls-1" d="M972.5,1313.5l-35.5-55-148.5,99v26.5l112,166.5,19.5,6.5,195-126.5,5-23.5-90.36-133.5M972.5,1313.5l15.5-11M972.5,1313.5l-7,5M988,1302.5l-36.5-52,34-23h13l31.14,46M988,1302.5l41.64-29"/>
  <path class="cls-1" d="M557.5,1774.5l-4-24,46-9,7.5,32-23.5,5v-4l-16.5,2v-3l-9.5,1Z"/>
  <path class="cls-1" d="M635,1694l-35.5,21,3,5-5.5,3.5,11.5,15.5-7,6,16.5,28"/>
  <path class="cls-1" d="M601.5,1652l-56,35.5v32.5l11.5,21.5,14-7.5,3.5,5.5,16-11-9.5-15,7-5.5-4.5-8,17-12.5,3,3.5,17-9.5-19-29.5Z"/>
  <path class="cls-1" d="M572.5,1590.5l-28.5,18,9,18-9,6.5,12.5,21,40.5-22.5"/>
  <path class="cls-1" d="M545,1595.5l22-15,97.5,163-45.5,29-62.5,13.5-15-75v-103.5l3.5-12Z"/>
  <path class="cls-1" d="M484,1756l-64.5,49.5,130,197,18,9,36,30,46.5-30-56.5-90.5-34-55-14.5-45v-28.5l-13.5-63-47.5,26.5Z"/>
  <path class="cls-1" d="M339,1659l-10.5,12.5,84.5,124.5,79-56.5,39-25.5v-113l3-12,27-19.5-17-26-26-2-179,117.5Z"/>
  <path class="cls-1" d="M675.5,2123.5l-52.5-62,102.5-69.5,38.5,60.5c2,2,6.9,5.1,10.5,1.5s1.5-8.17,0-10l-37-59,48-32.5,26.5-14-163-272.22M649,1666.28l-84-140.28,2-19,175-119,23.5,6,45,67.5-58.5,39.5-13.5,20-6.5,23h18l17-34.5,51-37.5c28.33,38,87.1,114.3,95.5,115.5s17.83-3.17,21.5-5.5l219.5-144.5v-30.5l-128-191.5,5.5-19.5,26.5-18,13-16,20-12.5,89.5,126c.83,1.33,3.6,3.2,8,0s3.83-7.67,3-9.5l-8.5-14.5,28-20c.67-1.5,1.6-5.3,0-8.5s-5.67-2.67-7.5-2l-29.5,20-67.5-91.5,76.5-53.5,5.5,5.5,24.5,44c1.67,2.17,5.8,6,9,4s3-7.17,2.5-9.5l-25-47-4-4.5,134-87c7.17,10.5,21.9,31.9,23.5,33.5,2,2,6.5,3,10,0,2.8-2.4,1.17-7,0-9l-23-32.5,105.5-70,16,24,11,24.5c.67,3.17,3.2,9,8,7s4.67-7.5,4-10l-12-28-14-25.5,103-66.5,22.5,5,91,132.5c-1.17,1-3.7,4-4.5,8s2.67,49.33,4.5,71.5l-4.5,8,13,81.5-20.5,89-30.5,56-7.5,76-69.5,71.5-67.5-51-32,24.5-23.5,52-11.5,61-6.5,101-69.5,100-10.5,38.5-5.5,49-92.5,118-26,56,6,95.5-18,32h-428l3.5-9,21.5-27,47-38.5-15.5-22.5,96.5-64-48-72-11,7.5-60.5-101-8.5,6-36-54.5-8-39.5-35.5-55.5-67.5,11.78Z"/>
  <path class="cls-1" d="M2509,538l-6.5-9.5,45-29.5,11.5,15-10.5,6.5,3,3-10.5,7-2.5-3-10,7-3.5-4-10,7.5h-6Z"/>
  <path class="cls-1" d="M2661.5,538.5l-14.5-32,28-12,7.5-10,19,16.5-14.5,21.5-13.5,6,1.5,3-13.5,7Z"/>
  <path class="cls-1" d="M2593.5,568l-14-30,41.5-20.5,1,3.5,21.5-10.5,14,32-64,25.5Z"/>
  <path class="cls-1" d="M2516,568.5l-4-23,60-14.5,8.5,39.5-54,7.5-1-11-9.5,1.5Z"/>
  <path class="cls-1" d="M2569,508.5l-10-15,10-7.5,2,3,27.5-19,20.5,31-15,10.5-5.5-6.5-13,8.5,2.5,3-12,7.5-9.5-13.5,2.5-2Z"/>
  <path class="cls-1" d="M2613,469l4.5-3-3.5-3.5,5.5-9.5,61,23.5-7,13.5-40,15.5-5.5-13.5-4,1.5-11-24.5Z"/>
  <path class="cls-1" d="M2710,480.5l-88-33-120.5,76-5.5,20,21,30,13,6.5,59.5-6.5,69.5-28,29.5-19.5,21.5-32v-13.5Z"/>
  <path class="cls-1" d="M2489,488.5l-23.5-31,49.5-34.5,18.5,7.5,13,20.5-57.5,37.5Z"/>
  <path class="cls-1" d="M2439,459l-25-34,41-29,7.5,10,7-5,7.5,9.5,6-4.5,12.5,14.5-56.5,38.5Z"/>
  <path class="cls-1" d="M2389,386.5l-15-23-46,32,67.5,96,33.5-25-52.5-71,12.5-9Z"/>
  <path class="cls-1" d="M2010.5,604l-24.5-36,103.5-74.5,26,35.5-105,75Z"/>
  <path class="cls-1" d="M1922.5,619.5v-8.5l57-38,26,36.5-27.5,19.5,11.5,16.5h4.5l14.5,20-38.5,26.5-47.5-72.5Z"/>
  <path class="cls-1" d="M1965.5,703.5l78-48.5-24.5-35.5,151-99.5,1.5-15.5-31-45.5"/>
  <path class="cls-1" d="M2343.5,534.5l-5.5-9-54.5,35.5,6.5,10.5M2355.5,526.5l-6-9,9-6-15-22-118.5,78c-5.83-8-16.9-27.1-14.5-39.5s18-21.5,25.5-24.5l5,6M2279,579l-7.5-11.5c-8.67,3.83-26.7,13.5-29.5,21.5s14.83,37,24,50.5l15,.5,139.5-94.75M2253.5,501l-5.5-6,39-27,5.5,6M2303.5,466.5l-5.5-6.5,17-11.5-14-19.5-15.5,11-3.5-4.5M2269.5,444l3.5,4.5-43,28.5-3-3.5M2215,482l4,5c-7,5.5-30.5,16.5-36,35.5-4.94,17.05,9.83,46.83,17.5,59.5l-27,19-4.5-4.5-9.5,7,4,5-53.5,34-4-4.5-11.5,7.5,3.5,4.5-97,64.5-4-6.5-10.5,6.5,3,4.5-17-4.5-60.5-95v-8l380.5-254.58M2292.5,356.92l35-23.42,208,77.5,24.5,39.5-139.5,94.75M2292.5,356.92l128,188.33"/>
  <path class="cls-1" d="M2047.5,718l6,10.5,7-4.41M2214.5,612.5l6.5,10.5-152.5,96.05M2055.5,714.5l5,9.59M2060.5,724.09l8-5.04M2063.5,709.5l5,9.55M2070.73,704.95l5,9.55M2077.5,700.68l5,9.55M2085.5,695.64l5,9.55M2092.67,691.13l5,9.55M2100.67,686.09l5,9.55M2108.5,681.16l5,9.55M2115.83,676.54l5,9.55M2123.67,671.6l5,9.55M2132,666.35l5,9.55M2139.75,661.47l5,9.55M2147.17,656.8l5,9.55M2154.92,651.92l5,9.55M2162.33,647.25l5,9.55M2169.5,642.37l5,9.55M2178,637.38l5,9.55M2186.5,632.03l5,9.55M2193.5,627.45l5,9.55M2201.67,622.48l5,9.55M2208.94,617.9l5,9.55"/>
  <path class="cls-1" d="M2031,794l-19-31.5,207-133,20.5,32-208.5,132.5Z"/>
  <path class="cls-1" d="M2005,739.5l-5,13.5,26,44.5,23.5,11.5,189.5-138.5,8-19-30.5-47-176.5,113,9.5,18.5-9.5,6-11-18.5-24,16Z"/>
  <path class="cls-1" d="M1755.5,928l-33.5-54.5,29.5-20.5,38,58-15.5,10-1.5-2.5-17,9.5Z"/>
  <path class="cls-1" d="M1652,905.5l53.5-35.5,23.5,34.5-6,4,6,7.5-5,3.5,10,14-19,14"/>
  <path class="cls-1" d="M1695.5,845.5l-38-57,38-24.5,37.5,56.5-37.5,25Z"/>
  <path class="cls-1" d="M1611,812l21.5,31.5,39-26.5-21-31.5"/>
  <path class="cls-1" d="M1646.5,884.5l-13.5-19,45-27,12.5,17-44,29Z"/>
  <path class="cls-1" d="M1810.5,678.5l24.5,36.5,42-25,24.5,36.5,33.5-21.5"/>
  <path class="cls-1" d="M1798,777l-34-53,45-26.5,33.5,51.5-44.5,28Z"/>
  <path class="cls-1" d="M1732.5,765.5l-19,12.5,32.5,50.5,43.5-26.5-12.5-21-25,13.5-19.5-29Z"/>
  <path class="cls-1" d="M1912.5,737l-71.5,45,23.5,35,61.5-35,39.5,58.5,35-25-44-69-26,15-18-24.5Z"/>
  <path class="cls-1" d="M1799.5,820.5l43,64.5-36.5,22-41-63,34.5-23.5Z"/>
  <path class="cls-1" d="M446.5,1285l27,38-17,14-2.5-3-15,11.5-3.5-4.5-9,6.5,12.5,16-9.5,7,13,17-7,5.5,15.5,20,4.5-2.5,10.5,14.5,4.5-3.5,10.5,16,4.5-3,8.5,12.5-10,7.5,11,12.5-5.5,4.5,7,8-39,26.5-9.5-13,4-3.5-32.5-47-3,2-20.5-29.5,5-3.5-19.5-27-5,3-22-31,5-3.5-9.5-14,34.5-23.5,5,7.5,6.5-7.5,10.5,15.5,12.5-8-8-10.5,5.5-4-5.5-7.5,16-12,4.5,6,15-10Z"/>
  <path class="cls-1" d="M559,1186l-10-15,36.5-24.5,6.5,10.5,5-4,10,15,4.5-3,11.5,17,4-2.5,7.5,12-7.5,6,9.5,15-6.5,4.5,6.5,9.5,7.5,2,12-10-3.5-4.5,27.5-19,3.5,5,19-14,29,40.5-18,14-4-5-35,25.5-3.5-3.5-7.5,7-1.5,12,9,1.5-2.5,11.5h5l-5,24-8-1.5-1.5,13.5-76.5-13.5,3-16-8-2,5-23.5,6.5,2,1.5-10.5,8,2.5,3-14-11-15,4.5-3-32-49-4,2.5Z"/>
  <path class="cls-1" d="M764.5,1040l4-2.5,31.5,46.5-4.5,4,12,14-3,14.5-10-1v8h-7l-3.5,23,6.5,2-3,15.5,76.5,15,3-17,9.5,2,3-22.5-5-1.5,2-11.5-9.5-2,2-11,9-6.5,1.5,3,53.5-40.5-27-37.5-62.5,43-7-10,4.5-4-8.5-12.5,8.5-7-8.5-11.5-3,2-12-17.5-4.5,3.5-10-14.5-5,3.5-7.5-10-36,25,10,16Z"/>
  <path class="cls-1" d="M973.5,898l-8.5-13.5,34.5-25.5,8,10.5,6-3.5,9,15,4.5-3,10.5,16.5,3-2,9,13.5-8,4.5,10.5,15.5-5.5,3,6.5,9.5,5,1,13-8.5-3-5,16.5-11,5.5,5.5,15-12,25.5,37-40.5,28-1.5-3.5-10,8-1.5,11,7.5,2-1.5,9.5,5.5,1-4,23-9-1.5-2,15.5-74-14,1.5-16-7.5-1.5,4-21.5h6v-7.5h12l2-13.5-12-18,4.5-2.5-32.5-48-4,2Z"/>
  <path class="cls-1" d="M1194.5,780.5l6-4,14,19-8,7.5,24,35.5-8.5,7,21.5,32,4.5-4,15,20-6.5,6,27,37.5,37-26.5-12.5-15,10.5-10.5-17.5-17,6-6.5-6.5-7.5,6-6-9.5-11-9,8.5-20-23,6.5-6.5-17-19.5,8-7.5-15-19,5.5-4.5-7-7.5,6-6-8.5-10-9.5,8-14-20-6.5,4.5-8.5-12-36,24.5,22.5,33.5Z"/>
  <path class="cls-1" d="M2880.5,259l29.5-63,38,18-29.5,62"/>
  <path class="cls-1" d="M2861.5,168l-23,49,44,21,25-51-46-19Z"/>
  <path class="cls-1" d="M1474,751.5l-15.5-30.5,32-15.5,17,30-17,10-2-3-14.5,9Z"/>
  <path class="cls-1" d="M1553.5,801.5l-10-22.5-7,4-18.5-32,40.5-20.5,27,50"/>
  <path class="cls-1" d="M1510,830l-29-57.5,36-17,26,52.5"/>
  <path class="cls-1" d="M1443.5,828l-15.5-33,25.5-13.5,2.5,4.5,9-4.5,13,27-13,6.5,1,2.5-22.5,10.5Z"/>
  <path class="cls-1" d="M1617,760l4-15.5-16.5-24-33.5,20.5,22.5,34"/>
  <path class="cls-1" d="M1652,737l-4-5h-5l-13.5-19,21.5-14.5-1.5-2,15-10,20.5,28.5"/>
  <path class="cls-1" d="M1829.5,309l20,27.5,24-18-6-6.5,12.5-10-13-16.5"/>
  <path class="cls-1" d="M1830.5,335.5l-24.5,16,39,59,25.5-18.5-12-16.5"/>
  <path class="cls-1" d="M1782.82,404l35.18-23.16-29.23-45.84-21.31,16.76-4.46,19.22"/>
  <path class="cls-1" d="M1845,499l-24.5-40.5,64-43,23.5,39.5-12,7.5,3,3.5-54,33Z"/>
  <path class="cls-1" d="M2128.5,108.5v10l67,28.5,10-24.5-13.5-4,3.5-26.5-15.5-20"/>
  <path class="cls-1" d="M2237.5,169l12-33,158,55.5-12,34.5-158-57Z"/>
  <path class="cls-1" d="M1881.5,562l-29.5-50.5,36-24.5,19,26,49.5-33.5,23,34.5-73.5,52.5-24.5-4.5Z"/>
  <path class="cls-1" d="M1986,510.5l-25.5-37.5,51-37,26.5,38.5-52,36Z"/>
  <path class="cls-1" d="M2096.5,389.5l-31.5,20.5,24.5,37.5-30.5-46.5-44.5,31.5,30,44.5"/>
  <path class="cls-1" d="M2205.5,312.5l1.5-13,62.5,17-2.5,15.5-47.5,26.5-25-4.5,6-41.5h5Z"/>
  <path class="cls-1" d="M2102,370l-34.5-4.5,7.5-29.5,45.5,3.5-5.5,25-7-2.5v5l-5-1.5-1,4.5Z"/>
  <path class="cls-1" d="M2168,393.5l-26.5-36,19.5-13,7,10,7.5-5,19,27"/>
  <path class="cls-1" d="M2122,394l6.5-5-12-18,21-14,26.5,38.5"/>
  <path class="cls-1" d="M2070,319l3.5-29,53.5,8-4.5,38.5-27-2.5v-3l-18-1.5v-8.5l-7.5-2Z"/>
  <path class="cls-1" d="M2128,336l4-35.5,58.5,6-3.5,36.5-59-7Z"/>
  <path class="cls-1" d="M2067.5,284l6-36,88,33-2,13.5-92-10.5Z"/>
  <path class="cls-1" d="M1817,316.5l-63.5,39.5,127,211.5,19.5,7,221.5-148.5-27-39-36-7v-13.5l42.5,7,11.5,6.5,22.5,34.5,64.5-41,70.5-38.5,20-15.5-300.5-114-118,77-44,28,40.5,58.5-9.5,6.5-41.5-59Z"/>
  <path class="cls-1" d="M1809,583l-12-18.5,30.5-18,26,37.5-6,18-37,23.5-21.5-29.5,20-13Z"/>
  <path class="cls-1" d="M2869.5,267l-28.5,50,20,12.5,48-41.5"/>
  <path class="cls-1" d="M2757,239l7,3-5,9,22,12-3,5.5,22.5,11,21.5-36.5"/>
  <path class="cls-1" d="M2828.5,246.5l-22,46.5,32,17,24-46"/>
  <path class="cls-1" d="M2772,346.5l32.5-41.5,31,25.5-7,8.5,5,5.5-15,17-4-4-10,10.5-13.5-10.5-2.5,3-16.5-14Z"/>
  <path class="cls-1" d="M2716,342l28-60,45.5,22-15,28.5-4.5-1.5-5,16-5-1.5-4,8.5-10-4.5-2,4.5-28-12Z"/>
  <path class="cls-1" d="M2685.5,68.5l24-47.5,97.5,49.5-54.5,100-47-22.5,27-56-47-23.5Z"/>
  <path class="cls-1" d="M2694.5,84.5l-12.5-6-28,54,25.5,11.5,5.5-8.5,13.5,7.5,11.5-21-5.5-2.5,5.5-11.5,3,1,9-18-24.5-12.5-3,6Z"/>
  <path class="cls-1" d="M2642.5,46.5l24.5-45.5h11l14.5,8-2.5,4,13.5,7.5-22,44.5-39-18.5Z"/>
  <path class="cls-1" d="M2544.5,43.5l8.5-22,34,14.5-22,48-36-17,10-19,5.5-4.5Z"/>
  <path class="cls-1" d="M1687,400.5l9.5,8.5,41.5,7.5-18.5-31-7-1.5"/>
  <path class="cls-1" d="M1680.5,404.5l17,15,66,6"/>
  <path class="cls-1" d="M1666,413.5l82,117.5,20-15-8-10.5,36.5-25.5"/>
  <path class="cls-1" d="M1558,483l5.5,8-10,7.5,23,35,2.5-1.5,6,7.5,10.5-7.5,63,102.5-12,7.5,24.5,45.5,89.5-56.5-30-48,9-5.5-98.5-147.5"/>
  <path class="cls-1" d="M1542.5,493l83.5,143.5-46.5,29,21,41.5-82,41-30-52.5-107,63"/>
  <path class="cls-1" d="M1439.5,876l-120.5-243,144-93,44-23.5,33-22,191-122.5,128,211-6.5,22.5-413,270.5Z"/>
  <path class="cls-1" d="M2445.5,1l-9,21.5,27,13,2-3,8.5,4.5,18.5-36"/>
  <path class="cls-1" d="M2698,171.5l-29,58,27,14,2-3,20.5,11"/>
  <path class="cls-1" d="M2602.5,306.5l15.5-39,71,26-8.5,26-6-2.5-5,16-67-26.5Z"/>
  <path class="cls-1" d="M2623,257l11.5-28,63.5,24.5-1.5,3.5,10.5,4.5-10.5,25-73.5-29.5Z"/>
  <path class="cls-1" d="M2557.5,288.5l31-80,40,16-32.5,78.5-38.5-14.5Z"/>
  <path class="cls-1" d="M2514.5,271.5l29.5-74,34.5,12.5-29,75.5-35-14Z"/>
  <path class="cls-1" d="M2407,229.5l22-51,36.5,12-1.5,3.5,23.5,9.5-7,16.5,35,15.5-13,30.5-95.5-36.5Z"/>
  <path class="cls-1" d="M2617.5,215l26-59,24.5,10-3,6,8,4-2.5,6,7,3.5-18,45-42-15.5Z"/>
  <path class="cls-1" d="M2590.5,197.5l-18-8,26-54,38,16.5-17,32.5-3-2-4.5,8,3.5,2.5-5,9.5-18-8.5-2,3.5Z"/>
  <path class="cls-1" d="M2512.5,179.5l30-65,39.5,19-15.5,32,7.5,5-13.5,24-8-4-2.5,4-37.5-15Z"/>
  <path class="cls-1" d="M2497.5,84l-24,47,45,21,25-47"/>
  <path class="cls-1" d="M2354,79l-27.5-31,31.5-24,28.5,30.5,29.5-5,7,38-30,6-12.5,37-38.5-12,12-39.5Z"/>
  <path class="cls-1" d="M2779,195.5L2875.5.5h131.5l-56.5,68,29,14.5L3041.5.5h69.5l120.5,53-184,106.5-71.5,78-55.5,39.5-48-22,6-10.5-99.5-49.5Z"/>
  <path class="cls-1" d="M2703.5,352.5l67-143,53.5,21.5-5,10.5,90,46.5-115.5,101-90-36.5Z"/>
  <path class="cls-1" d="M1919,46l99,37.5L2148,1"/>
  <path class="cls-1" d="M3,1135L1756,1"/>
  <path class="cls-1" d="M2,1296.5L1987,.5"/>
  <path class="cls-1" d="M53.5,1263l56,87L1892.5,155l-84-37.5"/>
  <path class="cls-1" d="M1,1431l38-29-38-58"/>
  <path class="cls-1" d="M2278,1.5l-169,121,100,35.5c3.67-19.83,16.2-59.2,37-58s113.67,34.17,157.5,50.5l-5,21c-44-16-134.9-47.4-146.5-45-11.6,2.4-17.5,31-19,45l441.5,171.5,68.5-141v-10l-47.5-22-1.5,3L2316,1.5"/>
  <path class="cls-1" d="M2757,180L2369,1h316.5l129.5,67.93-58,111.07Z"/>
  <path class="cls-1" d="M2234,92l-21-29.5,70.5-50,21.5,32-71,47.5Z"/>
  <path class="cls-1" d="M2452.5,63.5l-28.5,57.5,41.5,19,28-58"/>
  <path class="cls-1" d="M2501,1l-22,46,21.5,10,4.5-8,15,7.5,21-41-29-14.5"/>
  <path class="cls-1" d="M2553.5,1l-4,6,40.5,20.5,11-20.5-5-3,2-3"/>
  <path class="cls-1" d="M2617,1l-16,29,34.5,17,26-46"/>
  <path class="cls-1" d="M315,1640.5l-153.5-239.5,268.5-180,86.5,121,26.5-19-81.5-127.5,825.5-542,125,243-175.5,115-88.5-129.5-27.5,19,89,131.5-822.5,549.5-72,58.5Z"/>
  <path class="cls-1" d="M2573,73l20.5-40.5,29,13.5-1.5,3.5,12,5-15,30.5-6-2.5-4.5,7-15-7.5-5.5,6-14-7.5,4.5-5-4.5-2.5Z"/>
  <path class="cls-1" d="M2613.5,108.5l24.5-51,39.5,18.5-22.5,46.5-19-9-2.5,4.5-20-9.5Z"/>
  <path class="cls-1" d="M1779.5,559.5l-20-31,44.5-27.5,20,30.5-44.5,28Z"/>
  <rect class="cls-1" x="1798.54" y="399.84" width="38.05" height="38.63" transform="translate(57.54 1036.85) rotate(-32.33)"/>
  <path class="cls-1" d="M1616,687.5l-14.5-28,29.5-18.5,19,26.5-34,20Z"/>
  <path class="cls-1" d="M1604.5,836l4-23,267-177.5,18,3.5,111,175-3.5,16.5-293.5,120h-24.5l-78.5-114.5Z"/>
  <rect class="cls-1" x="2248.09" y="548.72" width="165" height="42" transform="translate(87.02 1419.79) rotate(-34.49)"/>
  <rect class="cls-1" x="2213.21" y="479.97" width="153.24" height="36.49" transform="translate(120.34 1384.13) rotate(-34.49)"/>
  <rect class="cls-1" x="2408.04" y="477.92" width="67.29" height="39.76" transform="translate(147.27 1470.05) rotate(-34.49)"/>
  <rect class="cls-1" x="2148.3" y="414.38" width="172.41" height="48.57" transform="translate(144.34 1342.35) rotate(-34.49)"/>
  <rect class="cls-1" x="2104.35" y="475.27" width="51" height="43" transform="translate(85.76 1274.43) rotate(-33.96)"/>
  <rect class="cls-1" x="2036.33" y="584.95" width="157.34" height="34.28" transform="translate(24.4 1284.09) rotate(-33.96)"/>
  <rect class="cls-1" x="912.07" y="1283.15" width="42.48" height="51.7" transform="translate(-572.09 744.79) rotate(-33.97)"/>
  <rect class="cls-1" x="1047.57" y="1417.32" width="38" height="36" transform="translate(-628.22 864.9) rotate(-34.78)"/>
  <path class="cls-1" d="M1029.5,1205.5l28-19,30,43.5-34.5,24.5"/>
  <rect class="cls-1" x="647.25" y="1948.34" width="65.54" height="37.44" transform="translate(-948.15 670.6) rotate(-32.4)"/>
  <rect class="cls-1" x="808.61" y="1953.81" width="103.79" height="41.04" transform="translate(-923.95 768.44) rotate(-32.4)"/>
  <path class="cls-1" d="M746.5,1979l20,28.5,33-22-20.5-28.5"/>
  <rect class="cls-1" x="2237.79" y="730.5" width="39.75" height="74.35" transform="translate(-50.7 1365.85) rotate(-33.31)"/>
  <rect class="cls-1" x="2223.25" y="832.35" width="100.5" height="34.74" transform="translate(-144.31 1061.88) rotate(-25.51)"/>
  <path class="cls-1" d="M2377,608.5l30,43.5,22-13.5,21.5,30.5,77,115.5"/>
  <path class="cls-1" d="M1376,2088c-4.8,10-7.67,28.17-8.5,36h326l-34-47.5-35.5-31c-7.33-2.33-26.6-7-45-7h-166l-15.5,9.5c-5.17,9.17-16.7,30-21.5,40Z"/>
  <path class="cls-1" d="M75,1456l-72,57v93.5l66.5-59,50-34.5-44.5-57Z"/>
  <path class="cls-1" d="M1803,1067l-18,3,8,33,18-5-8-31Z"/>
  <rect class="cls-1" x="235.74" y="1406.21" width="55.91" height="144" transform="translate(-770.77 389.85) rotate(-33.43)"/>
  <rect class="cls-1" x="2458.25" y="1165.07" width="47" height="40" transform="translate(-192.88 544.89) rotate(-12.06)"/>
  <rect class="cls-1" x="2617.36" y="1201.51" width="45" height="42" transform="translate(-127.24 324.41) rotate(-6.87)"/>
  <rect class="cls-1" x="2318.97" y="698.44" width="38.06" height="165.58" transform="translate(-22.43 1491.83) rotate(-35.23)"/>
  <rect class="cls-1" x="2429.82" y="674.86" width="38.06" height="85.31" transform="translate(34.63 1544.1) rotate(-35.23)"/>
  <path class="cls-1" d="M2546,597.5l-7,14.5,216.5,305,63.5-40-10-14.5c1.83-15,5.9-47.4,7.5-57s9.67-41.33,13.5-56l11.5-128.5-6-19.5,16-83-110.5-25-49.5,52.5-27.5,17,24,38.5,71.5-32.5,6.5,16.5-81.5,35.5-30-48h-11.5l-30,17.5-67,7Z"/>
  <path class="cls-1" d="M2785,822l-72.5-106.5,92-63.5,22.5,32-54.5,37.5,4,5.5-4,2,44.5,69-32,24Z"/>
  <rect class="cls-1" x="2704.2" y="603.44" width="68" height="27" transform="translate(-11.54 1180.24) rotate(-24.27)"/>
  <rect class="cls-1" x="2822.04" y="1125.12" width="49" height="31" transform="translate(-212.75 1351.67) rotate(-25.78)"/>
  <path class="cls-1" d="M2815.5,1133.5l-17.5-38,38-20.5,9,19.5,6.5-2,9,18.5-45,22.5Z"/>
  <rect class="cls-1" x="2859.13" y="1053.89" width="42" height="58" transform="translate(-185.29 1349.34) rotate(-25.57)"/>
  <path class="cls-1" d="M3069,1061.5v-46.5h47.5v59.5h-39v-13h-8.5Z"/>
  <path class="cls-1" d="M2902,67.5l-42.5-21-42.5,88,135,66.5,25-51.5-77.5-31.5,2.5-7-12-6,4-7.5-13.5-7.5,7-14,9.5,3.5,5-12Z"/>
  <path class="cls-1" d="M3070.5,97l-9.5-7,26-29.5,42.5,29.5-30.5,33-31-22,2.5-4Z"/>
  <path class="cls-1" d="M3242,426.5l3-7.5-37.5-13-31.5,79.5,63,10.5,12-41.5-3.5-3,3.5-11.5-6-2,5-11.5h-8Z"/>
</svg>